<?xml version="1.0" encoding="utf-8" standalone="no"?>
<!DOCTYPE svg PUBLIC "-//W3C//DTD SVG 1.1//EN"
  "http://www.w3.org/Graphics/SVG/1.1/DTD/svg11.dtd">
<svg xmlns:xlink="http://www.w3.org/1999/xlink" width="502.0128pt" height="458.2995pt" viewBox="0 0 502.0128 458.2995" xmlns="http://www.w3.org/2000/svg" version="1.1">
 <metadata>
  <rdf:RDF xmlns:dc="http://purl.org/dc/elements/1.1/" xmlns:cc="http://creativecommons.org/ns#" xmlns:rdf="http://www.w3.org/1999/02/22-rdf-syntax-ns#">
   <cc:Work>
    <dc:type rdf:resource="http://purl.org/dc/dcmitype/StillImage"/>
    <dc:date>2026-05-19T16:08:24.989464</dc:date>
    <dc:format>image/svg+xml</dc:format>
    <dc:creator>
     <cc:Agent>
      <dc:title>Matplotlib v3.10.8, https://matplotlib.org/</dc:title>
     </cc:Agent>
    </dc:creator>
   </cc:Work>
  </rdf:RDF>
 </metadata>
 <defs>
  <style type="text/css">*{stroke-linejoin: round; stroke-linecap: butt}</style>
 </defs>
 <g id="figure_1">
  <g id="patch_1">
   <path d="M 0 458.2995 
L 502.0128 458.2995 
L 502.0128 0 
L 0 0 
L 0 458.2995 
z
" style="fill: none"/>
  </g>
  <g id="axes_1">
   <g id="patch_2">
    <path d="M 177.86448 106.926132 
L 324.14832 106.926132 
Q 325.367352 106.926132 325.367352 105.7071 
L 325.367352 73.19958 
Q 325.367352 71.980548 324.14832 71.980548 
L 177.86448 71.980548 
Q 176.645448 71.980548 176.645448 73.19958 
L 176.645448 105.7071 
Q 176.645448 106.926132 177.86448 106.926132 
z
" clip-path="url(#p43ece14f57)" style="fill: #44546f; opacity: 0.85; stroke: #333333; stroke-width: 1.2; stroke-linejoin: miter"/>
   </g>
   <g id="patch_3">
    <path d="M 190.0548 196.321812 
L 311.958 196.321812 
Q 313.177032 196.321812 313.177032 195.10278 
L 313.177032 154.46838 
Q 313.177032 153.249348 311.958 153.249348 
L 190.0548 153.249348 
Q 188.835768 153.249348 188.835768 154.46838 
L 188.835768 195.10278 
Q 188.835768 196.321812 190.0548 196.321812 
z
" clip-path="url(#p43ece14f57)" style="fill: #00875a; opacity: 0.85; stroke: #333333; stroke-width: 1.2; stroke-linejoin: miter"/>
   </g>
   <g id="patch_4">
    <path d="M 202.24512 322.288452 
L 299.76768 322.288452 
Q 300.986712 322.288452 300.986712 321.06942 
L 300.986712 288.5619 
Q 300.986712 287.342868 299.76768 287.342868 
L 202.24512 287.342868 
Q 201.026088 287.342868 201.026088 288.5619 
L 201.026088 321.06942 
Q 201.026088 322.288452 202.24512 322.288452 
z
" clip-path="url(#p43ece14f57)" style="fill: #6554c0; opacity: 0.85; stroke: #333333; stroke-width: 1.2; stroke-linejoin: miter"/>
   </g>
   <g id="patch_5">
    <path d="M 27.5172 391.366932 
L 230.6892 391.366932 
Q 231.908232 391.366932 231.908232 390.1479 
L 231.908232 357.64038 
Q 231.908232 356.421348 230.6892 356.421348 
L 27.5172 356.421348 
Q 26.298168 356.421348 26.298168 357.64038 
L 26.298168 390.1479 
Q 26.298168 391.366932 27.5172 391.366932 
z
" clip-path="url(#p43ece14f57)" style="fill: #f4f5f7; opacity: 0.85; stroke: #333333; stroke-width: 1.2; stroke-linejoin: miter"/>
   </g>
   <g id="patch_6">
    <path d="M 251.0064 391.366932 
L 474.4956 391.366932 
Q 475.714632 391.366932 475.714632 390.1479 
L 475.714632 357.64038 
Q 475.714632 356.421348 474.4956 356.421348 
L 251.0064 356.421348 
Q 249.787368 356.421348 249.787368 357.64038 
L 249.787368 390.1479 
Q 249.787368 391.366932 251.0064 391.366932 
z
" clip-path="url(#p43ece14f57)" style="fill: #e3fcef; opacity: 0.85; stroke: #333333; stroke-width: 1.2; stroke-linejoin: miter"/>
   </g>
   <g id="text_1">
    <!-- Token representation -->
    <g style="fill: #ffffff" transform="translate(202.885775 87.150465) scale(0.08 -0.08)">
     <defs>
      <path id="DejaVuSans-Bold-54" d="M 31 4666 
L 4331 4666 
L 4331 3756 
L 2784 3756 
L 2784 0 
L 1581 0 
L 1581 3756 
L 31 3756 
L 31 4666 
z
" transform="scale(0.015625)"/>
      <path id="DejaVuSans-Bold-6f" d="M 2203 2784 
Q 1831 2784 1636 2517 
Q 1441 2250 1441 1747 
Q 1441 1244 1636 976 
Q 1831 709 2203 709 
Q 2569 709 2762 976 
Q 2956 1244 2956 1747 
Q 2956 2250 2762 2517 
Q 2569 2784 2203 2784 
z
M 2203 3584 
Q 3106 3584 3614 3096 
Q 4122 2609 4122 1747 
Q 4122 884 3614 396 
Q 3106 -91 2203 -91 
Q 1297 -91 786 396 
Q 275 884 275 1747 
Q 275 2609 786 3096 
Q 1297 3584 2203 3584 
z
" transform="scale(0.015625)"/>
      <path id="DejaVuSans-Bold-6b" d="M 538 4863 
L 1656 4863 
L 1656 2216 
L 2944 3500 
L 4244 3500 
L 2534 1894 
L 4378 0 
L 3022 0 
L 1656 1459 
L 1656 0 
L 538 0 
L 538 4863 
z
" transform="scale(0.015625)"/>
      <path id="DejaVuSans-Bold-65" d="M 4031 1759 
L 4031 1441 
L 1416 1441 
Q 1456 1047 1700 850 
Q 1944 653 2381 653 
Q 2734 653 3104 758 
Q 3475 863 3866 1075 
L 3866 213 
Q 3469 63 3072 -14 
Q 2675 -91 2278 -91 
Q 1328 -91 801 392 
Q 275 875 275 1747 
Q 275 2603 792 3093 
Q 1309 3584 2216 3584 
Q 3041 3584 3536 3087 
Q 4031 2591 4031 1759 
z
M 2881 2131 
Q 2881 2450 2695 2645 
Q 2509 2841 2209 2841 
Q 1884 2841 1681 2658 
Q 1478 2475 1428 2131 
L 2881 2131 
z
" transform="scale(0.015625)"/>
      <path id="DejaVuSans-Bold-6e" d="M 4056 2131 
L 4056 0 
L 2931 0 
L 2931 347 
L 2931 1631 
Q 2931 2084 2911 2256 
Q 2891 2428 2841 2509 
Q 2775 2619 2662 2680 
Q 2550 2741 2406 2741 
Q 2056 2741 1856 2470 
Q 1656 2200 1656 1722 
L 1656 0 
L 538 0 
L 538 3500 
L 1656 3500 
L 1656 2988 
Q 1909 3294 2193 3439 
Q 2478 3584 2822 3584 
Q 3428 3584 3742 3212 
Q 4056 2841 4056 2131 
z
" transform="scale(0.015625)"/>
      <path id="DejaVuSans-Bold-20" transform="scale(0.015625)"/>
      <path id="DejaVuSans-Bold-72" d="M 3138 2547 
Q 2991 2616 2845 2648 
Q 2700 2681 2553 2681 
Q 2122 2681 1889 2404 
Q 1656 2128 1656 1613 
L 1656 0 
L 538 0 
L 538 3500 
L 1656 3500 
L 1656 2925 
Q 1872 3269 2151 3426 
Q 2431 3584 2822 3584 
Q 2878 3584 2943 3579 
Q 3009 3575 3134 3559 
L 3138 2547 
z
" transform="scale(0.015625)"/>
      <path id="DejaVuSans-Bold-70" d="M 1656 506 
L 1656 -1331 
L 538 -1331 
L 538 3500 
L 1656 3500 
L 1656 2988 
Q 1888 3294 2169 3439 
Q 2450 3584 2816 3584 
Q 3463 3584 3878 3070 
Q 4294 2556 4294 1747 
Q 4294 938 3878 423 
Q 3463 -91 2816 -91 
Q 2450 -91 2169 54 
Q 1888 200 1656 506 
z
M 2400 2772 
Q 2041 2772 1848 2508 
Q 1656 2244 1656 1747 
Q 1656 1250 1848 986 
Q 2041 722 2400 722 
Q 2759 722 2948 984 
Q 3138 1247 3138 1747 
Q 3138 2247 2948 2509 
Q 2759 2772 2400 2772 
z
" transform="scale(0.015625)"/>
      <path id="DejaVuSans-Bold-73" d="M 3272 3391 
L 3272 2541 
Q 2913 2691 2578 2766 
Q 2244 2841 1947 2841 
Q 1628 2841 1473 2761 
Q 1319 2681 1319 2516 
Q 1319 2381 1436 2309 
Q 1553 2238 1856 2203 
L 2053 2175 
Q 2913 2066 3209 1816 
Q 3506 1566 3506 1031 
Q 3506 472 3093 190 
Q 2681 -91 1863 -91 
Q 1516 -91 1145 -36 
Q 775 19 384 128 
L 384 978 
Q 719 816 1070 734 
Q 1422 653 1784 653 
Q 2113 653 2278 743 
Q 2444 834 2444 1013 
Q 2444 1163 2330 1236 
Q 2216 1309 1875 1350 
L 1678 1375 
Q 931 1469 631 1722 
Q 331 1975 331 2491 
Q 331 3047 712 3315 
Q 1094 3584 1881 3584 
Q 2191 3584 2531 3537 
Q 2872 3491 3272 3391 
z
" transform="scale(0.015625)"/>
      <path id="DejaVuSans-Bold-74" d="M 1759 4494 
L 1759 3500 
L 2913 3500 
L 2913 2700 
L 1759 2700 
L 1759 1216 
Q 1759 972 1856 886 
Q 1953 800 2241 800 
L 2816 800 
L 2816 0 
L 1856 0 
Q 1194 0 917 276 
Q 641 553 641 1216 
L 641 2700 
L 84 2700 
L 84 3500 
L 641 3500 
L 641 4494 
L 1759 4494 
z
" transform="scale(0.015625)"/>
      <path id="DejaVuSans-Bold-61" d="M 2106 1575 
Q 1756 1575 1579 1456 
Q 1403 1338 1403 1106 
Q 1403 894 1545 773 
Q 1688 653 1941 653 
Q 2256 653 2472 879 
Q 2688 1106 2688 1447 
L 2688 1575 
L 2106 1575 
z
M 3816 1997 
L 3816 0 
L 2688 0 
L 2688 519 
Q 2463 200 2181 54 
Q 1900 -91 1497 -91 
Q 953 -91 614 226 
Q 275 544 275 1050 
Q 275 1666 698 1953 
Q 1122 2241 2028 2241 
L 2688 2241 
L 2688 2328 
Q 2688 2594 2478 2717 
Q 2269 2841 1825 2841 
Q 1466 2841 1156 2769 
Q 847 2697 581 2553 
L 581 3406 
Q 941 3494 1303 3539 
Q 1666 3584 2028 3584 
Q 2975 3584 3395 3211 
Q 3816 2838 3816 1997 
z
" transform="scale(0.015625)"/>
      <path id="DejaVuSans-Bold-69" d="M 538 3500 
L 1656 3500 
L 1656 0 
L 538 0 
L 538 3500 
z
M 538 4863 
L 1656 4863 
L 1656 3950 
L 538 3950 
L 538 4863 
z
" transform="scale(0.015625)"/>
     </defs>
     <use xlink:href="#DejaVuSans-Bold-54"/>
     <use xlink:href="#DejaVuSans-Bold-6f" transform="translate(54.962891 0)"/>
     <use xlink:href="#DejaVuSans-Bold-6b" transform="translate(123.664062 0)"/>
     <use xlink:href="#DejaVuSans-Bold-65" transform="translate(187.542969 0)"/>
     <use xlink:href="#DejaVuSans-Bold-6e" transform="translate(255.365234 0)"/>
     <use xlink:href="#DejaVuSans-Bold-20" transform="translate(326.556641 0)"/>
     <use xlink:href="#DejaVuSans-Bold-72" transform="translate(361.371094 0)"/>
     <use xlink:href="#DejaVuSans-Bold-65" transform="translate(410.6875 0)"/>
     <use xlink:href="#DejaVuSans-Bold-70" transform="translate(478.509766 0)"/>
     <use xlink:href="#DejaVuSans-Bold-72" transform="translate(550.091797 0)"/>
     <use xlink:href="#DejaVuSans-Bold-65" transform="translate(599.408203 0)"/>
     <use xlink:href="#DejaVuSans-Bold-73" transform="translate(667.230469 0)"/>
     <use xlink:href="#DejaVuSans-Bold-65" transform="translate(726.751953 0)"/>
     <use xlink:href="#DejaVuSans-Bold-6e" transform="translate(794.574219 0)"/>
     <use xlink:href="#DejaVuSans-Bold-74" transform="translate(865.765625 0)"/>
     <use xlink:href="#DejaVuSans-Bold-61" transform="translate(913.568359 0)"/>
     <use xlink:href="#DejaVuSans-Bold-74" transform="translate(981.048828 0)"/>
     <use xlink:href="#DejaVuSans-Bold-69" transform="translate(1028.851562 0)"/>
     <use xlink:href="#DejaVuSans-Bold-6f" transform="translate(1063.128906 0)"/>
     <use xlink:href="#DejaVuSans-Bold-6e" transform="translate(1131.830078 0)"/>
    </g>
    <!-- (high-dimensional) -->
    <g style="fill: #ffffff" transform="translate(208.379525 96.108715) scale(0.08 -0.08)">
     <defs>
      <path id="DejaVuSans-Bold-28" d="M 2413 -844 
L 1484 -844 
Q 1006 -72 778 623 
Q 550 1319 550 2003 
Q 550 2688 779 3389 
Q 1009 4091 1484 4856 
L 2413 4856 
Q 2013 4116 1813 3408 
Q 1613 2700 1613 2009 
Q 1613 1319 1811 609 
Q 2009 -100 2413 -844 
z
" transform="scale(0.015625)"/>
      <path id="DejaVuSans-Bold-68" d="M 4056 2131 
L 4056 0 
L 2931 0 
L 2931 347 
L 2931 1625 
Q 2931 2084 2911 2256 
Q 2891 2428 2841 2509 
Q 2775 2619 2662 2680 
Q 2550 2741 2406 2741 
Q 2056 2741 1856 2470 
Q 1656 2200 1656 1722 
L 1656 0 
L 538 0 
L 538 4863 
L 1656 4863 
L 1656 2988 
Q 1909 3294 2193 3439 
Q 2478 3584 2822 3584 
Q 3428 3584 3742 3212 
Q 4056 2841 4056 2131 
z
" transform="scale(0.015625)"/>
      <path id="DejaVuSans-Bold-67" d="M 2919 594 
Q 2688 288 2409 144 
Q 2131 0 1766 0 
Q 1125 0 706 504 
Q 288 1009 288 1791 
Q 288 2575 706 3076 
Q 1125 3578 1766 3578 
Q 2131 3578 2409 3434 
Q 2688 3291 2919 2981 
L 2919 3500 
L 4044 3500 
L 4044 353 
Q 4044 -491 3511 -936 
Q 2978 -1381 1966 -1381 
Q 1638 -1381 1331 -1331 
Q 1025 -1281 716 -1178 
L 716 -306 
Q 1009 -475 1290 -558 
Q 1572 -641 1856 -641 
Q 2406 -641 2662 -400 
Q 2919 -159 2919 353 
L 2919 594 
z
M 2181 2772 
Q 1834 2772 1640 2515 
Q 1447 2259 1447 1791 
Q 1447 1309 1634 1061 
Q 1822 813 2181 813 
Q 2531 813 2725 1069 
Q 2919 1325 2919 1791 
Q 2919 2259 2725 2515 
Q 2531 2772 2181 2772 
z
" transform="scale(0.015625)"/>
      <path id="DejaVuSans-Bold-2d" d="M 347 2297 
L 2309 2297 
L 2309 1388 
L 347 1388 
L 347 2297 
z
" transform="scale(0.015625)"/>
      <path id="DejaVuSans-Bold-64" d="M 2919 2988 
L 2919 4863 
L 4044 4863 
L 4044 0 
L 2919 0 
L 2919 506 
Q 2688 197 2409 53 
Q 2131 -91 1766 -91 
Q 1119 -91 703 423 
Q 288 938 288 1747 
Q 288 2556 703 3070 
Q 1119 3584 1766 3584 
Q 2128 3584 2408 3439 
Q 2688 3294 2919 2988 
z
M 2181 722 
Q 2541 722 2730 984 
Q 2919 1247 2919 1747 
Q 2919 2247 2730 2509 
Q 2541 2772 2181 2772 
Q 1825 2772 1636 2509 
Q 1447 2247 1447 1747 
Q 1447 1247 1636 984 
Q 1825 722 2181 722 
z
" transform="scale(0.015625)"/>
      <path id="DejaVuSans-Bold-6d" d="M 3781 2919 
Q 3994 3244 4286 3414 
Q 4578 3584 4928 3584 
Q 5531 3584 5847 3212 
Q 6163 2841 6163 2131 
L 6163 0 
L 5038 0 
L 5038 1825 
Q 5041 1866 5042 1909 
Q 5044 1953 5044 2034 
Q 5044 2406 4934 2573 
Q 4825 2741 4581 2741 
Q 4263 2741 4089 2478 
Q 3916 2216 3909 1719 
L 3909 0 
L 2784 0 
L 2784 1825 
Q 2784 2406 2684 2573 
Q 2584 2741 2328 2741 
Q 2006 2741 1831 2477 
Q 1656 2213 1656 1722 
L 1656 0 
L 531 0 
L 531 3500 
L 1656 3500 
L 1656 2988 
Q 1863 3284 2130 3434 
Q 2397 3584 2719 3584 
Q 3081 3584 3359 3409 
Q 3638 3234 3781 2919 
z
" transform="scale(0.015625)"/>
      <path id="DejaVuSans-Bold-6c" d="M 538 4863 
L 1656 4863 
L 1656 0 
L 538 0 
L 538 4863 
z
" transform="scale(0.015625)"/>
      <path id="DejaVuSans-Bold-29" d="M 513 -844 
Q 913 -100 1113 609 
Q 1313 1319 1313 2009 
Q 1313 2700 1113 3408 
Q 913 4116 513 4856 
L 1441 4856 
Q 1916 4091 2145 3389 
Q 2375 2688 2375 2003 
Q 2375 1319 2147 623 
Q 1919 -72 1441 -844 
L 513 -844 
z
" transform="scale(0.015625)"/>
     </defs>
     <use xlink:href="#DejaVuSans-Bold-28"/>
     <use xlink:href="#DejaVuSans-Bold-68" transform="translate(45.703125 0)"/>
     <use xlink:href="#DejaVuSans-Bold-69" transform="translate(116.894531 0)"/>
     <use xlink:href="#DejaVuSans-Bold-67" transform="translate(151.171875 0)"/>
     <use xlink:href="#DejaVuSans-Bold-68" transform="translate(222.753906 0)"/>
     <use xlink:href="#DejaVuSans-Bold-2d" transform="translate(293.945312 0)"/>
     <use xlink:href="#DejaVuSans-Bold-64" transform="translate(335.449219 0)"/>
     <use xlink:href="#DejaVuSans-Bold-69" transform="translate(407.03125 0)"/>
     <use xlink:href="#DejaVuSans-Bold-6d" transform="translate(441.308594 0)"/>
     <use xlink:href="#DejaVuSans-Bold-65" transform="translate(545.507812 0)"/>
     <use xlink:href="#DejaVuSans-Bold-6e" transform="translate(613.330078 0)"/>
     <use xlink:href="#DejaVuSans-Bold-73" transform="translate(684.521484 0)"/>
     <use xlink:href="#DejaVuSans-Bold-69" transform="translate(744.042969 0)"/>
     <use xlink:href="#DejaVuSans-Bold-6f" transform="translate(778.320312 0)"/>
     <use xlink:href="#DejaVuSans-Bold-6e" transform="translate(847.021484 0)"/>
     <use xlink:href="#DejaVuSans-Bold-61" transform="translate(918.212891 0)"/>
     <use xlink:href="#DejaVuSans-Bold-6c" transform="translate(985.693359 0)"/>
     <use xlink:href="#DejaVuSans-Bold-29" transform="translate(1019.970703 0)"/>
    </g>
   </g>
   <g id="patch_7">
    <path d="M 251.0064 107.706082 
Q 251.0064 126.021591 251.0064 142.101031 
" style="fill: none; stroke: #00875a; stroke-width: 2; stroke-linecap: round"/>
    <path d="M 253.0064 138.101031 
L 251.0064 142.101031 
L 249.0064 138.101031 
" style="fill: none; stroke: #00875a; stroke-width: 2; stroke-linecap: round"/>
   </g>
   <g id="text_2">
    <!-- Low-rank projection -->
    <g style="fill: #00875a" transform="translate(300.72833 117.06605) scale(0.08 -0.08)">
     <defs>
      <path id="DejaVuSans-Oblique-4c" d="M 1075 4666 
L 1709 4666 
L 909 525 
L 3181 525 
L 3078 0 
L 172 0 
L 1075 4666 
z
" transform="scale(0.015625)"/>
      <path id="DejaVuSans-Oblique-6f" d="M 1625 -91 
Q 1009 -91 651 289 
Q 294 669 294 1325 
Q 294 1706 417 2101 
Q 541 2497 738 2766 
Q 1047 3184 1428 3384 
Q 1809 3584 2291 3584 
Q 2888 3584 3255 3212 
Q 3622 2841 3622 2241 
Q 3622 1825 3500 1412 
Q 3378 1000 3181 728 
Q 2875 309 2494 109 
Q 2113 -91 1625 -91 
z
M 891 1344 
Q 891 869 1089 633 
Q 1288 397 1691 397 
Q 2269 397 2648 901 
Q 3028 1406 3028 2181 
Q 3028 2634 2825 2865 
Q 2622 3097 2228 3097 
Q 1903 3097 1650 2945 
Q 1397 2794 1197 2484 
Q 1050 2253 970 1956 
Q 891 1659 891 1344 
z
" transform="scale(0.015625)"/>
      <path id="DejaVuSans-Oblique-77" d="M 544 3500 
L 1113 3500 
L 1259 684 
L 2566 3500 
L 3231 3500 
L 3425 684 
L 4666 3500 
L 5241 3500 
L 3641 0 
L 2969 0 
L 2797 2900 
L 1459 0 
L 781 0 
L 544 3500 
z
" transform="scale(0.015625)"/>
      <path id="DejaVuSans-Oblique-2d" d="M 391 2009 
L 2075 2009 
L 1978 1497 
L 288 1497 
L 391 2009 
z
" transform="scale(0.015625)"/>
      <path id="DejaVuSans-Oblique-72" d="M 2853 2969 
Q 2766 3016 2653 3041 
Q 2541 3066 2413 3066 
Q 1953 3066 1609 2717 
Q 1266 2369 1153 1784 
L 800 0 
L 225 0 
L 909 3500 
L 1484 3500 
L 1375 2956 
Q 1603 3259 1920 3421 
Q 2238 3584 2597 3584 
Q 2691 3584 2781 3573 
Q 2872 3563 2963 3538 
L 2853 2969 
z
" transform="scale(0.015625)"/>
      <path id="DejaVuSans-Oblique-61" d="M 3438 1997 
L 3047 0 
L 2472 0 
L 2578 531 
Q 2325 219 2001 64 
Q 1678 -91 1281 -91 
Q 834 -91 548 182 
Q 263 456 263 884 
Q 263 1497 752 1853 
Q 1241 2209 2100 2209 
L 2900 2209 
L 2931 2363 
Q 2938 2388 2941 2417 
Q 2944 2447 2944 2509 
Q 2944 2788 2717 2942 
Q 2491 3097 2081 3097 
Q 1800 3097 1504 3025 
Q 1209 2953 897 2809 
L 997 3341 
Q 1322 3463 1633 3523 
Q 1944 3584 2234 3584 
Q 2853 3584 3176 3315 
Q 3500 3047 3500 2534 
Q 3500 2431 3484 2292 
Q 3469 2153 3438 1997 
z
M 2816 1759 
L 2241 1759 
Q 1534 1759 1195 1570 
Q 856 1381 856 984 
Q 856 709 1029 553 
Q 1203 397 1509 397 
Q 1978 397 2328 733 
Q 2678 1069 2791 1631 
L 2816 1759 
z
" transform="scale(0.015625)"/>
      <path id="DejaVuSans-Oblique-6e" d="M 3566 2113 
L 3156 0 
L 2578 0 
L 2988 2091 
Q 3016 2238 3031 2350 
Q 3047 2463 3047 2528 
Q 3047 2791 2881 2937 
Q 2716 3084 2419 3084 
Q 1956 3084 1622 2776 
Q 1288 2469 1184 1941 
L 800 0 
L 225 0 
L 903 3500 
L 1478 3500 
L 1363 2950 
Q 1603 3253 1940 3418 
Q 2278 3584 2650 3584 
Q 3113 3584 3367 3334 
Q 3622 3084 3622 2631 
Q 3622 2519 3608 2391 
Q 3594 2263 3566 2113 
z
" transform="scale(0.015625)"/>
      <path id="DejaVuSans-Oblique-6b" d="M 1172 4863 
L 1747 4863 
L 1197 2028 
L 3169 3500 
L 3916 3500 
L 1716 1825 
L 3322 0 
L 2625 0 
L 1131 1709 
L 800 0 
L 225 0 
L 1172 4863 
z
" transform="scale(0.015625)"/>
      <path id="DejaVuSans-Oblique-20" transform="scale(0.015625)"/>
      <path id="DejaVuSans-Oblique-70" d="M 3175 2156 
Q 3175 2616 2975 2859 
Q 2775 3103 2400 3103 
Q 2144 3103 1911 2972 
Q 1678 2841 1497 2591 
Q 1319 2344 1212 1994 
Q 1106 1644 1106 1300 
Q 1106 863 1306 627 
Q 1506 391 1875 391 
Q 2147 391 2380 519 
Q 2613 647 2778 891 
Q 2956 1147 3065 1494 
Q 3175 1841 3175 2156 
z
M 1394 2969 
Q 1625 3272 1939 3428 
Q 2253 3584 2638 3584 
Q 3175 3584 3472 3232 
Q 3769 2881 3769 2247 
Q 3769 1728 3584 1258 
Q 3400 788 3053 416 
Q 2822 169 2531 39 
Q 2241 -91 1919 -91 
Q 1547 -91 1294 64 
Q 1041 219 916 525 
L 556 -1331 
L -19 -1331 
L 922 3500 
L 1497 3500 
L 1394 2969 
z
" transform="scale(0.015625)"/>
      <path id="DejaVuSans-Oblique-6a" d="M 928 3500 
L 1503 3500 
L 813 -63 
L 809 -78 
Q 694 -675 544 -897 
Q 403 -1106 132 -1218 
Q -138 -1331 -506 -1331 
L -722 -1331 
L -628 -844 
L -481 -844 
Q -144 -844 -1 -703 
Q 141 -563 238 -63 
L 928 3500 
z
M 1197 4863 
L 1772 4863 
L 1631 4134 
L 1056 4134 
L 1197 4863 
z
" transform="scale(0.015625)"/>
      <path id="DejaVuSans-Oblique-65" d="M 3078 2063 
Q 3088 2113 3092 2166 
Q 3097 2219 3097 2272 
Q 3097 2653 2873 2875 
Q 2650 3097 2266 3097 
Q 1838 3097 1509 2826 
Q 1181 2556 1013 2059 
L 3078 2063 
z
M 3578 1613 
L 903 1613 
Q 884 1494 878 1425 
Q 872 1356 872 1306 
Q 872 872 1139 634 
Q 1406 397 1894 397 
Q 2269 397 2603 481 
Q 2938 566 3225 728 
L 3116 159 
Q 2806 34 2476 -28 
Q 2147 -91 1806 -91 
Q 1078 -91 686 257 
Q 294 606 294 1247 
Q 294 1794 489 2264 
Q 684 2734 1063 3103 
Q 1306 3334 1642 3459 
Q 1978 3584 2356 3584 
Q 2950 3584 3301 3228 
Q 3653 2872 3653 2272 
Q 3653 2128 3634 1964 
Q 3616 1800 3578 1613 
z
" transform="scale(0.015625)"/>
      <path id="DejaVuSans-Oblique-63" d="M 3431 3366 
L 3316 2797 
Q 3109 2947 2876 3022 
Q 2644 3097 2394 3097 
Q 2119 3097 1870 3000 
Q 1622 2903 1453 2725 
Q 1184 2453 1037 2087 
Q 891 1722 891 1331 
Q 891 859 1127 628 
Q 1363 397 1844 397 
Q 2081 397 2348 469 
Q 2616 541 2906 684 
L 2797 116 
Q 2547 13 2283 -39 
Q 2019 -91 1741 -91 
Q 1044 -91 669 257 
Q 294 606 294 1253 
Q 294 1797 489 2255 
Q 684 2713 1069 3078 
Q 1331 3328 1684 3456 
Q 2038 3584 2456 3584 
Q 2700 3584 2940 3529 
Q 3181 3475 3431 3366 
z
" transform="scale(0.015625)"/>
      <path id="DejaVuSans-Oblique-74" d="M 2706 3500 
L 2619 3053 
L 1472 3053 
L 1100 1153 
Q 1081 1047 1072 975 
Q 1063 903 1063 863 
Q 1063 663 1183 572 
Q 1303 481 1569 481 
L 2150 481 
L 2053 0 
L 1503 0 
Q 991 0 739 200 
Q 488 400 488 806 
Q 488 878 497 964 
Q 506 1050 525 1153 
L 897 3053 
L 409 3053 
L 500 3500 
L 978 3500 
L 1172 4494 
L 1747 4494 
L 1556 3500 
L 2706 3500 
z
" transform="scale(0.015625)"/>
      <path id="DejaVuSans-Oblique-69" d="M 1172 4863 
L 1747 4863 
L 1606 4134 
L 1031 4134 
L 1172 4863 
z
M 909 3500 
L 1484 3500 
L 800 0 
L 225 0 
L 909 3500 
z
" transform="scale(0.015625)"/>
     </defs>
     <use xlink:href="#DejaVuSans-Oblique-4c"/>
     <use xlink:href="#DejaVuSans-Oblique-6f" transform="translate(55.712891 0)"/>
     <use xlink:href="#DejaVuSans-Oblique-77" transform="translate(116.894531 0)"/>
     <use xlink:href="#DejaVuSans-Oblique-2d" transform="translate(198.681641 0)"/>
     <use xlink:href="#DejaVuSans-Oblique-72" transform="translate(234.765625 0)"/>
     <use xlink:href="#DejaVuSans-Oblique-61" transform="translate(275.878906 0)"/>
     <use xlink:href="#DejaVuSans-Oblique-6e" transform="translate(337.158203 0)"/>
     <use xlink:href="#DejaVuSans-Oblique-6b" transform="translate(400.537109 0)"/>
     <use xlink:href="#DejaVuSans-Oblique-20" transform="translate(458.447266 0)"/>
     <use xlink:href="#DejaVuSans-Oblique-70" transform="translate(490.234375 0)"/>
     <use xlink:href="#DejaVuSans-Oblique-72" transform="translate(553.710938 0)"/>
     <use xlink:href="#DejaVuSans-Oblique-6f" transform="translate(594.824219 0)"/>
     <use xlink:href="#DejaVuSans-Oblique-6a" transform="translate(656.005859 0)"/>
     <use xlink:href="#DejaVuSans-Oblique-65" transform="translate(683.789062 0)"/>
     <use xlink:href="#DejaVuSans-Oblique-63" transform="translate(745.3125 0)"/>
     <use xlink:href="#DejaVuSans-Oblique-74" transform="translate(800.292969 0)"/>
     <use xlink:href="#DejaVuSans-Oblique-69" transform="translate(839.501953 0)"/>
     <use xlink:href="#DejaVuSans-Oblique-6f" transform="translate(867.285156 0)"/>
     <use xlink:href="#DejaVuSans-Oblique-6e" transform="translate(928.466797 0)"/>
    </g>
    <!-- (compress) -->
    <g style="fill: #00875a" transform="translate(317.925205 126.0243) scale(0.08 -0.08)">
     <defs>
      <path id="DejaVuSans-Oblique-28" d="M 2731 4856 
Q 1903 3822 1495 2892 
Q 1088 1963 1088 1100 
Q 1088 606 1206 120 
Q 1325 -366 1563 -844 
L 1063 -844 
Q 775 -306 634 201 
Q 494 709 494 1197 
Q 494 2125 923 3036 
Q 1353 3947 2222 4856 
L 2731 4856 
z
" transform="scale(0.015625)"/>
      <path id="DejaVuSans-Oblique-6d" d="M 5747 2113 
L 5338 0 
L 4763 0 
L 5166 2094 
Q 5191 2228 5203 2325 
Q 5216 2422 5216 2491 
Q 5216 2772 5059 2928 
Q 4903 3084 4622 3084 
Q 4203 3084 3875 2770 
Q 3547 2456 3450 1953 
L 3066 0 
L 2491 0 
L 2900 2094 
Q 2925 2209 2937 2307 
Q 2950 2406 2950 2484 
Q 2950 2769 2794 2926 
Q 2638 3084 2363 3084 
Q 1938 3084 1609 2770 
Q 1281 2456 1184 1953 
L 800 0 
L 225 0 
L 909 3500 
L 1484 3500 
L 1375 2956 
Q 1609 3263 1923 3423 
Q 2238 3584 2597 3584 
Q 2978 3584 3223 3384 
Q 3469 3184 3519 2828 
Q 3781 3197 4126 3390 
Q 4472 3584 4856 3584 
Q 5306 3584 5551 3325 
Q 5797 3066 5797 2591 
Q 5797 2488 5784 2364 
Q 5772 2241 5747 2113 
z
" transform="scale(0.015625)"/>
      <path id="DejaVuSans-Oblique-73" d="M 3200 3397 
L 3091 2853 
Q 2863 2978 2609 3040 
Q 2356 3103 2088 3103 
Q 1634 3103 1373 2948 
Q 1113 2794 1113 2528 
Q 1113 2219 1719 2053 
Q 1766 2041 1788 2034 
L 1972 1978 
Q 2547 1819 2739 1644 
Q 2931 1469 2931 1166 
Q 2931 609 2489 259 
Q 2047 -91 1331 -91 
Q 1053 -91 747 -37 
Q 441 16 72 128 
L 184 722 
Q 500 559 806 475 
Q 1113 391 1394 391 
Q 1816 391 2080 572 
Q 2344 753 2344 1031 
Q 2344 1331 1650 1516 
L 1591 1531 
L 1394 1581 
Q 956 1697 753 1886 
Q 550 2075 550 2369 
Q 550 2928 970 3256 
Q 1391 3584 2113 3584 
Q 2397 3584 2667 3537 
Q 2938 3491 3200 3397 
z
" transform="scale(0.015625)"/>
      <path id="DejaVuSans-Oblique-29" d="M -397 -844 
Q 434 191 840 1120 
Q 1247 2050 1247 2913 
Q 1247 3406 1130 3892 
Q 1013 4378 775 4856 
L 1275 4856 
Q 1563 4316 1703 3812 
Q 1844 3309 1844 2822 
Q 1844 1891 1411 973 
Q 978 56 116 -844 
L -397 -844 
z
" transform="scale(0.015625)"/>
     </defs>
     <use xlink:href="#DejaVuSans-Oblique-28"/>
     <use xlink:href="#DejaVuSans-Oblique-63" transform="translate(39.013672 0)"/>
     <use xlink:href="#DejaVuSans-Oblique-6f" transform="translate(93.994141 0)"/>
     <use xlink:href="#DejaVuSans-Oblique-6d" transform="translate(155.175781 0)"/>
     <use xlink:href="#DejaVuSans-Oblique-70" transform="translate(252.587891 0)"/>
     <use xlink:href="#DejaVuSans-Oblique-72" transform="translate(316.064453 0)"/>
     <use xlink:href="#DejaVuSans-Oblique-65" transform="translate(357.177734 0)"/>
     <use xlink:href="#DejaVuSans-Oblique-73" transform="translate(418.701172 0)"/>
     <use xlink:href="#DejaVuSans-Oblique-73" transform="translate(470.800781 0)"/>
     <use xlink:href="#DejaVuSans-Oblique-29" transform="translate(522.900391 0)"/>
    </g>
   </g>
   <g id="text_3">
    <!-- Compressed latent -->
    <g style="fill: #ffffff" transform="translate(203.097572 172.230002) scale(0.09 -0.09)">
     <defs>
      <path id="DejaVuSans-Bold-43" d="M 4288 256 
Q 3956 84 3597 -3 
Q 3238 -91 2847 -91 
Q 1681 -91 1000 561 
Q 319 1213 319 2328 
Q 319 3447 1000 4098 
Q 1681 4750 2847 4750 
Q 3238 4750 3597 4662 
Q 3956 4575 4288 4403 
L 4288 3438 
Q 3953 3666 3628 3772 
Q 3303 3878 2944 3878 
Q 2300 3878 1931 3465 
Q 1563 3053 1563 2328 
Q 1563 1606 1931 1193 
Q 2300 781 2944 781 
Q 3303 781 3628 887 
Q 3953 994 4288 1222 
L 4288 256 
z
" transform="scale(0.015625)"/>
     </defs>
     <use xlink:href="#DejaVuSans-Bold-43"/>
     <use xlink:href="#DejaVuSans-Bold-6f" transform="translate(73.388672 0)"/>
     <use xlink:href="#DejaVuSans-Bold-6d" transform="translate(142.089844 0)"/>
     <use xlink:href="#DejaVuSans-Bold-70" transform="translate(246.289062 0)"/>
     <use xlink:href="#DejaVuSans-Bold-72" transform="translate(317.871094 0)"/>
     <use xlink:href="#DejaVuSans-Bold-65" transform="translate(367.1875 0)"/>
     <use xlink:href="#DejaVuSans-Bold-73" transform="translate(435.009766 0)"/>
     <use xlink:href="#DejaVuSans-Bold-73" transform="translate(494.53125 0)"/>
     <use xlink:href="#DejaVuSans-Bold-65" transform="translate(554.052734 0)"/>
     <use xlink:href="#DejaVuSans-Bold-64" transform="translate(621.875 0)"/>
     <use xlink:href="#DejaVuSans-Bold-20" transform="translate(693.457031 0)"/>
     <use xlink:href="#DejaVuSans-Bold-6c" transform="translate(728.271484 0)"/>
     <use xlink:href="#DejaVuSans-Bold-61" transform="translate(762.548828 0)"/>
     <use xlink:href="#DejaVuSans-Bold-74" transform="translate(830.029297 0)"/>
     <use xlink:href="#DejaVuSans-Bold-65" transform="translate(877.832031 0)"/>
     <use xlink:href="#DejaVuSans-Bold-6e" transform="translate(945.654297 0)"/>
     <use xlink:href="#DejaVuSans-Bold-74" transform="translate(1016.845703 0)"/>
    </g>
    <!-- KV state -->
    <g style="fill: #ffffff" transform="translate(229.401478 182.308033) scale(0.09 -0.09)">
     <defs>
      <path id="DejaVuSans-Bold-4b" d="M 588 4666 
L 1791 4666 
L 1791 2963 
L 3525 4666 
L 4922 4666 
L 2675 2456 
L 5153 0 
L 3647 0 
L 1791 1838 
L 1791 0 
L 588 0 
L 588 4666 
z
" transform="scale(0.015625)"/>
      <path id="DejaVuSans-Bold-56" d="M 31 4666 
L 1241 4666 
L 2478 1222 
L 3713 4666 
L 4922 4666 
L 3194 0 
L 1759 0 
L 31 4666 
z
" transform="scale(0.015625)"/>
     </defs>
     <use xlink:href="#DejaVuSans-Bold-4b"/>
     <use xlink:href="#DejaVuSans-Bold-56" transform="translate(77.490234 0)"/>
     <use xlink:href="#DejaVuSans-Bold-20" transform="translate(154.882812 0)"/>
     <use xlink:href="#DejaVuSans-Bold-73" transform="translate(189.697266 0)"/>
     <use xlink:href="#DejaVuSans-Bold-74" transform="translate(249.21875 0)"/>
     <use xlink:href="#DejaVuSans-Bold-61" transform="translate(297.021484 0)"/>
     <use xlink:href="#DejaVuSans-Bold-74" transform="translate(364.501953 0)"/>
     <use xlink:href="#DejaVuSans-Bold-65" transform="translate(412.304688 0)"/>
    </g>
   </g>
   <g id="text_4">
    <!-- ← THIS is cached -->
    <g style="fill: #00875a" transform="translate(352.5924 164.707549) scale(0.09 -0.09)">
     <defs>
      <path id="DejaVuSans-Bold-2190" d="M 313 1788 
L 313 2225 
L 1541 3453 
L 1994 3000 
L 1375 2381 
L 4997 2381 
L 4997 1631 
L 1375 1631 
L 1994 1013 
L 1541 559 
L 313 1788 
z
" transform="scale(0.015625)"/>
      <path id="DejaVuSans-Bold-48" d="M 588 4666 
L 1791 4666 
L 1791 2888 
L 3566 2888 
L 3566 4666 
L 4769 4666 
L 4769 0 
L 3566 0 
L 3566 1978 
L 1791 1978 
L 1791 0 
L 588 0 
L 588 4666 
z
" transform="scale(0.015625)"/>
      <path id="DejaVuSans-Bold-49" d="M 588 4666 
L 1791 4666 
L 1791 0 
L 588 0 
L 588 4666 
z
" transform="scale(0.015625)"/>
      <path id="DejaVuSans-Bold-53" d="M 3834 4519 
L 3834 3531 
Q 3450 3703 3084 3790 
Q 2719 3878 2394 3878 
Q 1963 3878 1756 3759 
Q 1550 3641 1550 3391 
Q 1550 3203 1689 3098 
Q 1828 2994 2194 2919 
L 2706 2816 
Q 3484 2659 3812 2340 
Q 4141 2022 4141 1434 
Q 4141 663 3683 286 
Q 3225 -91 2284 -91 
Q 1841 -91 1394 -6 
Q 947 78 500 244 
L 500 1259 
Q 947 1022 1364 901 
Q 1781 781 2169 781 
Q 2563 781 2772 912 
Q 2981 1044 2981 1288 
Q 2981 1506 2839 1625 
Q 2697 1744 2272 1838 
L 1806 1941 
Q 1106 2091 782 2419 
Q 459 2747 459 3303 
Q 459 4000 909 4375 
Q 1359 4750 2203 4750 
Q 2588 4750 2994 4692 
Q 3400 4634 3834 4519 
z
" transform="scale(0.015625)"/>
      <path id="DejaVuSans-Bold-63" d="M 3366 3391 
L 3366 2478 
Q 3138 2634 2908 2709 
Q 2678 2784 2431 2784 
Q 1963 2784 1702 2511 
Q 1441 2238 1441 1747 
Q 1441 1256 1702 982 
Q 1963 709 2431 709 
Q 2694 709 2930 787 
Q 3166 866 3366 1019 
L 3366 103 
Q 3103 6 2833 -42 
Q 2563 -91 2291 -91 
Q 1344 -91 809 395 
Q 275 881 275 1747 
Q 275 2613 809 3098 
Q 1344 3584 2291 3584 
Q 2566 3584 2833 3536 
Q 3100 3488 3366 3391 
z
" transform="scale(0.015625)"/>
     </defs>
     <use xlink:href="#DejaVuSans-Bold-2190"/>
     <use xlink:href="#DejaVuSans-Bold-20" transform="translate(83.789062 0)"/>
     <use xlink:href="#DejaVuSans-Bold-54" transform="translate(118.603516 0)"/>
     <use xlink:href="#DejaVuSans-Bold-48" transform="translate(186.816406 0)"/>
     <use xlink:href="#DejaVuSans-Bold-49" transform="translate(270.507812 0)"/>
     <use xlink:href="#DejaVuSans-Bold-53" transform="translate(307.714844 0)"/>
     <use xlink:href="#DejaVuSans-Bold-20" transform="translate(379.736328 0)"/>
     <use xlink:href="#DejaVuSans-Bold-69" transform="translate(414.550781 0)"/>
     <use xlink:href="#DejaVuSans-Bold-73" transform="translate(448.828125 0)"/>
     <use xlink:href="#DejaVuSans-Bold-20" transform="translate(508.349609 0)"/>
     <use xlink:href="#DejaVuSans-Bold-63" transform="translate(543.164062 0)"/>
     <use xlink:href="#DejaVuSans-Bold-61" transform="translate(602.441406 0)"/>
     <use xlink:href="#DejaVuSans-Bold-63" transform="translate(669.921875 0)"/>
     <use xlink:href="#DejaVuSans-Bold-68" transform="translate(729.199219 0)"/>
     <use xlink:href="#DejaVuSans-Bold-65" transform="translate(800.390625 0)"/>
     <use xlink:href="#DejaVuSans-Bold-64" transform="translate(868.212891 0)"/>
    </g>
    <!-- (much smaller) -->
    <g style="fill: #00875a" transform="translate(352.5924 174.78558) scale(0.09 -0.09)">
     <defs>
      <path id="DejaVuSans-Bold-75" d="M 500 1363 
L 500 3500 
L 1625 3500 
L 1625 3150 
Q 1625 2866 1622 2436 
Q 1619 2006 1619 1863 
Q 1619 1441 1641 1255 
Q 1663 1069 1716 984 
Q 1784 875 1895 815 
Q 2006 756 2150 756 
Q 2500 756 2700 1025 
Q 2900 1294 2900 1772 
L 2900 3500 
L 4019 3500 
L 4019 0 
L 2900 0 
L 2900 506 
Q 2647 200 2364 54 
Q 2081 -91 1741 -91 
Q 1134 -91 817 281 
Q 500 653 500 1363 
z
" transform="scale(0.015625)"/>
     </defs>
     <use xlink:href="#DejaVuSans-Bold-28"/>
     <use xlink:href="#DejaVuSans-Bold-6d" transform="translate(45.703125 0)"/>
     <use xlink:href="#DejaVuSans-Bold-75" transform="translate(149.902344 0)"/>
     <use xlink:href="#DejaVuSans-Bold-63" transform="translate(221.09375 0)"/>
     <use xlink:href="#DejaVuSans-Bold-68" transform="translate(280.371094 0)"/>
     <use xlink:href="#DejaVuSans-Bold-20" transform="translate(351.5625 0)"/>
     <use xlink:href="#DejaVuSans-Bold-73" transform="translate(386.376953 0)"/>
     <use xlink:href="#DejaVuSans-Bold-6d" transform="translate(445.898438 0)"/>
     <use xlink:href="#DejaVuSans-Bold-61" transform="translate(550.097656 0)"/>
     <use xlink:href="#DejaVuSans-Bold-6c" transform="translate(617.578125 0)"/>
     <use xlink:href="#DejaVuSans-Bold-6c" transform="translate(651.855469 0)"/>
     <use xlink:href="#DejaVuSans-Bold-65" transform="translate(686.132812 0)"/>
     <use xlink:href="#DejaVuSans-Bold-72" transform="translate(753.955078 0)"/>
     <use xlink:href="#DejaVuSans-Bold-29" transform="translate(803.271484 0)"/>
    </g>
   </g>
   <g id="patch_8">
    <path d="M 251.0064 197.104986 
Q 251.0064 221.515861 251.0064 244.249685 
" style="fill: none; stroke: #6554c0; stroke-width: 1.5; stroke-linecap: round"/>
    <path d="M 253.0064 240.249685 
L 251.0064 244.249685 
L 249.0064 240.249685 
" style="fill: none; stroke: #6554c0; stroke-width: 1.5; stroke-linecap: round"/>
   </g>
   <g id="text_5">
    <!-- Attention computed from -->
    <g style="fill: #6554c0" transform="translate(186.590306 258.166669) scale(0.09 -0.09)">
     <defs>
      <path id="DejaVuSans-Bold-41" d="M 3419 850 
L 1538 850 
L 1241 0 
L 31 0 
L 1759 4666 
L 3194 4666 
L 4922 0 
L 3713 0 
L 3419 850 
z
M 1838 1716 
L 3116 1716 
L 2478 3572 
L 1838 1716 
z
" transform="scale(0.015625)"/>
      <path id="DejaVuSans-Bold-66" d="M 2841 4863 
L 2841 4128 
L 2222 4128 
Q 1984 4128 1890 4042 
Q 1797 3956 1797 3744 
L 1797 3500 
L 2753 3500 
L 2753 2700 
L 1797 2700 
L 1797 0 
L 678 0 
L 678 2700 
L 122 2700 
L 122 3500 
L 678 3500 
L 678 3744 
Q 678 4316 997 4589 
Q 1316 4863 1984 4863 
L 2841 4863 
z
" transform="scale(0.015625)"/>
     </defs>
     <use xlink:href="#DejaVuSans-Bold-41"/>
     <use xlink:href="#DejaVuSans-Bold-74" transform="translate(77.392578 0)"/>
     <use xlink:href="#DejaVuSans-Bold-74" transform="translate(125.195312 0)"/>
     <use xlink:href="#DejaVuSans-Bold-65" transform="translate(172.998047 0)"/>
     <use xlink:href="#DejaVuSans-Bold-6e" transform="translate(240.820312 0)"/>
     <use xlink:href="#DejaVuSans-Bold-74" transform="translate(312.011719 0)"/>
     <use xlink:href="#DejaVuSans-Bold-69" transform="translate(359.814453 0)"/>
     <use xlink:href="#DejaVuSans-Bold-6f" transform="translate(394.091797 0)"/>
     <use xlink:href="#DejaVuSans-Bold-6e" transform="translate(462.792969 0)"/>
     <use xlink:href="#DejaVuSans-Bold-20" transform="translate(533.984375 0)"/>
     <use xlink:href="#DejaVuSans-Bold-63" transform="translate(568.798828 0)"/>
     <use xlink:href="#DejaVuSans-Bold-6f" transform="translate(628.076172 0)"/>
     <use xlink:href="#DejaVuSans-Bold-6d" transform="translate(696.777344 0)"/>
     <use xlink:href="#DejaVuSans-Bold-70" transform="translate(800.976562 0)"/>
     <use xlink:href="#DejaVuSans-Bold-75" transform="translate(872.558594 0)"/>
     <use xlink:href="#DejaVuSans-Bold-74" transform="translate(943.75 0)"/>
     <use xlink:href="#DejaVuSans-Bold-65" transform="translate(991.552734 0)"/>
     <use xlink:href="#DejaVuSans-Bold-64" transform="translate(1059.375 0)"/>
     <use xlink:href="#DejaVuSans-Bold-20" transform="translate(1130.957031 0)"/>
     <use xlink:href="#DejaVuSans-Bold-66" transform="translate(1165.771484 0)"/>
     <use xlink:href="#DejaVuSans-Bold-72" transform="translate(1209.277344 0)"/>
     <use xlink:href="#DejaVuSans-Bold-6f" transform="translate(1258.59375 0)"/>
     <use xlink:href="#DejaVuSans-Bold-6d" transform="translate(1327.294922 0)"/>
    </g>
    <!-- latent + positional state -->
    <g style="fill: #6554c0" transform="translate(189.228431 268.2447) scale(0.09 -0.09)">
     <defs>
      <path id="DejaVuSans-Bold-2b" d="M 3053 4013 
L 3053 2375 
L 4684 2375 
L 4684 1638 
L 3053 1638 
L 3053 0 
L 2309 0 
L 2309 1638 
L 678 1638 
L 678 2375 
L 2309 2375 
L 2309 4013 
L 3053 4013 
z
" transform="scale(0.015625)"/>
     </defs>
     <use xlink:href="#DejaVuSans-Bold-6c"/>
     <use xlink:href="#DejaVuSans-Bold-61" transform="translate(34.277344 0)"/>
     <use xlink:href="#DejaVuSans-Bold-74" transform="translate(101.757812 0)"/>
     <use xlink:href="#DejaVuSans-Bold-65" transform="translate(149.560547 0)"/>
     <use xlink:href="#DejaVuSans-Bold-6e" transform="translate(217.382812 0)"/>
     <use xlink:href="#DejaVuSans-Bold-74" transform="translate(288.574219 0)"/>
     <use xlink:href="#DejaVuSans-Bold-20" transform="translate(336.376953 0)"/>
     <use xlink:href="#DejaVuSans-Bold-2b" transform="translate(371.191406 0)"/>
     <use xlink:href="#DejaVuSans-Bold-20" transform="translate(454.980469 0)"/>
     <use xlink:href="#DejaVuSans-Bold-70" transform="translate(489.794922 0)"/>
     <use xlink:href="#DejaVuSans-Bold-6f" transform="translate(561.376953 0)"/>
     <use xlink:href="#DejaVuSans-Bold-73" transform="translate(630.078125 0)"/>
     <use xlink:href="#DejaVuSans-Bold-69" transform="translate(689.599609 0)"/>
     <use xlink:href="#DejaVuSans-Bold-74" transform="translate(723.876953 0)"/>
     <use xlink:href="#DejaVuSans-Bold-69" transform="translate(771.679688 0)"/>
     <use xlink:href="#DejaVuSans-Bold-6f" transform="translate(805.957031 0)"/>
     <use xlink:href="#DejaVuSans-Bold-6e" transform="translate(874.658203 0)"/>
     <use xlink:href="#DejaVuSans-Bold-61" transform="translate(945.849609 0)"/>
     <use xlink:href="#DejaVuSans-Bold-6c" transform="translate(1013.330078 0)"/>
     <use xlink:href="#DejaVuSans-Bold-20" transform="translate(1047.607422 0)"/>
     <use xlink:href="#DejaVuSans-Bold-73" transform="translate(1082.421875 0)"/>
     <use xlink:href="#DejaVuSans-Bold-74" transform="translate(1141.943359 0)"/>
     <use xlink:href="#DejaVuSans-Bold-61" transform="translate(1189.746094 0)"/>
     <use xlink:href="#DejaVuSans-Bold-74" transform="translate(1257.226562 0)"/>
     <use xlink:href="#DejaVuSans-Bold-65" transform="translate(1305.029297 0)"/>
    </g>
   </g>
   <g id="text_6">
    <!-- Attention -->
    <g style="fill: #ffffff" transform="translate(226.977806 302.260082) scale(0.09 -0.09)">
     <use xlink:href="#DejaVuSans-Bold-41"/>
     <use xlink:href="#DejaVuSans-Bold-74" transform="translate(77.392578 0)"/>
     <use xlink:href="#DejaVuSans-Bold-74" transform="translate(125.195312 0)"/>
     <use xlink:href="#DejaVuSans-Bold-65" transform="translate(172.998047 0)"/>
     <use xlink:href="#DejaVuSans-Bold-6e" transform="translate(240.820312 0)"/>
     <use xlink:href="#DejaVuSans-Bold-74" transform="translate(312.011719 0)"/>
     <use xlink:href="#DejaVuSans-Bold-69" transform="translate(359.814453 0)"/>
     <use xlink:href="#DejaVuSans-Bold-6f" transform="translate(394.091797 0)"/>
     <use xlink:href="#DejaVuSans-Bold-6e" transform="translate(462.792969 0)"/>
    </g>
    <!-- Output -->
    <g style="fill: #ffffff" transform="translate(233.251088 312.338113) scale(0.09 -0.09)">
     <defs>
      <path id="DejaVuSans-Bold-4f" d="M 2719 3878 
Q 2169 3878 1866 3472 
Q 1563 3066 1563 2328 
Q 1563 1594 1866 1187 
Q 2169 781 2719 781 
Q 3272 781 3575 1187 
Q 3878 1594 3878 2328 
Q 3878 3066 3575 3472 
Q 3272 3878 2719 3878 
z
M 2719 4750 
Q 3844 4750 4481 4106 
Q 5119 3463 5119 2328 
Q 5119 1197 4481 553 
Q 3844 -91 2719 -91 
Q 1597 -91 958 553 
Q 319 1197 319 2328 
Q 319 3463 958 4106 
Q 1597 4750 2719 4750 
z
" transform="scale(0.015625)"/>
     </defs>
     <use xlink:href="#DejaVuSans-Bold-4f"/>
     <use xlink:href="#DejaVuSans-Bold-75" transform="translate(85.009766 0)"/>
     <use xlink:href="#DejaVuSans-Bold-74" transform="translate(156.201172 0)"/>
     <use xlink:href="#DejaVuSans-Bold-70" transform="translate(204.003906 0)"/>
     <use xlink:href="#DejaVuSans-Bold-75" transform="translate(275.585938 0)"/>
     <use xlink:href="#DejaVuSans-Bold-74" transform="translate(346.777344 0)"/>
    </g>
   </g>
   <g id="text_7">
    <!-- Standard: cache full K + full V per layer -->
    <g style="fill: #333333" transform="translate(39.62945 376.07039) scale(0.08 -0.08)">
     <defs>
      <path id="DejaVuSans-Bold-3a" d="M 716 3500 
L 1844 3500 
L 1844 2291 
L 716 2291 
L 716 3500 
z
M 716 1209 
L 1844 1209 
L 1844 0 
L 716 0 
L 716 1209 
z
" transform="scale(0.015625)"/>
      <path id="DejaVuSans-Bold-79" d="M 78 3500 
L 1197 3500 
L 2138 1125 
L 2938 3500 
L 4056 3500 
L 2584 -331 
Q 2363 -916 2067 -1148 
Q 1772 -1381 1288 -1381 
L 641 -1381 
L 641 -647 
L 991 -647 
Q 1275 -647 1404 -556 
Q 1534 -466 1606 -231 
L 1638 -134 
L 78 3500 
z
" transform="scale(0.015625)"/>
     </defs>
     <use xlink:href="#DejaVuSans-Bold-53"/>
     <use xlink:href="#DejaVuSans-Bold-74" transform="translate(72.021484 0)"/>
     <use xlink:href="#DejaVuSans-Bold-61" transform="translate(119.824219 0)"/>
     <use xlink:href="#DejaVuSans-Bold-6e" transform="translate(187.304688 0)"/>
     <use xlink:href="#DejaVuSans-Bold-64" transform="translate(258.496094 0)"/>
     <use xlink:href="#DejaVuSans-Bold-61" transform="translate(330.078125 0)"/>
     <use xlink:href="#DejaVuSans-Bold-72" transform="translate(397.558594 0)"/>
     <use xlink:href="#DejaVuSans-Bold-64" transform="translate(446.875 0)"/>
     <use xlink:href="#DejaVuSans-Bold-3a" transform="translate(518.457031 0)"/>
     <use xlink:href="#DejaVuSans-Bold-20" transform="translate(558.447266 0)"/>
     <use xlink:href="#DejaVuSans-Bold-63" transform="translate(593.261719 0)"/>
     <use xlink:href="#DejaVuSans-Bold-61" transform="translate(652.539062 0)"/>
     <use xlink:href="#DejaVuSans-Bold-63" transform="translate(720.019531 0)"/>
     <use xlink:href="#DejaVuSans-Bold-68" transform="translate(779.296875 0)"/>
     <use xlink:href="#DejaVuSans-Bold-65" transform="translate(850.488281 0)"/>
     <use xlink:href="#DejaVuSans-Bold-20" transform="translate(918.310547 0)"/>
     <use xlink:href="#DejaVuSans-Bold-66" transform="translate(953.125 0)"/>
     <use xlink:href="#DejaVuSans-Bold-75" transform="translate(996.630859 0)"/>
     <use xlink:href="#DejaVuSans-Bold-6c" transform="translate(1067.822266 0)"/>
     <use xlink:href="#DejaVuSans-Bold-6c" transform="translate(1102.099609 0)"/>
     <use xlink:href="#DejaVuSans-Bold-20" transform="translate(1136.376953 0)"/>
     <use xlink:href="#DejaVuSans-Bold-4b" transform="translate(1171.191406 0)"/>
     <use xlink:href="#DejaVuSans-Bold-20" transform="translate(1248.681641 0)"/>
     <use xlink:href="#DejaVuSans-Bold-2b" transform="translate(1283.496094 0)"/>
     <use xlink:href="#DejaVuSans-Bold-20" transform="translate(1367.285156 0)"/>
     <use xlink:href="#DejaVuSans-Bold-66" transform="translate(1402.099609 0)"/>
     <use xlink:href="#DejaVuSans-Bold-75" transform="translate(1445.605469 0)"/>
     <use xlink:href="#DejaVuSans-Bold-6c" transform="translate(1516.796875 0)"/>
     <use xlink:href="#DejaVuSans-Bold-6c" transform="translate(1551.074219 0)"/>
     <use xlink:href="#DejaVuSans-Bold-20" transform="translate(1585.351562 0)"/>
     <use xlink:href="#DejaVuSans-Bold-56" transform="translate(1620.166016 0)"/>
     <use xlink:href="#DejaVuSans-Bold-20" transform="translate(1697.558594 0)"/>
     <use xlink:href="#DejaVuSans-Bold-70" transform="translate(1732.373047 0)"/>
     <use xlink:href="#DejaVuSans-Bold-65" transform="translate(1803.955078 0)"/>
     <use xlink:href="#DejaVuSans-Bold-72" transform="translate(1871.777344 0)"/>
     <use xlink:href="#DejaVuSans-Bold-20" transform="translate(1921.09375 0)"/>
     <use xlink:href="#DejaVuSans-Bold-6c" transform="translate(1955.908203 0)"/>
     <use xlink:href="#DejaVuSans-Bold-61" transform="translate(1990.185547 0)"/>
     <use xlink:href="#DejaVuSans-Bold-79" transform="translate(2054.541016 0)"/>
     <use xlink:href="#DejaVuSans-Bold-65" transform="translate(2119.726562 0)"/>
     <use xlink:href="#DejaVuSans-Bold-72" transform="translate(2187.548828 0)"/>
    </g>
   </g>
   <g id="text_8">
    <!-- MLA: cache compressed latent (93% less -->
    <g style="fill: #006644" transform="translate(276.368578 371.735195) scale(0.075 -0.075)">
     <defs>
      <path id="DejaVuSans-Bold-4d" d="M 588 4666 
L 2119 4666 
L 3181 2169 
L 4250 4666 
L 5778 4666 
L 5778 0 
L 4641 0 
L 4641 3413 
L 3566 897 
L 2803 897 
L 1728 3413 
L 1728 0 
L 588 0 
L 588 4666 
z
" transform="scale(0.015625)"/>
      <path id="DejaVuSans-Bold-4c" d="M 588 4666 
L 1791 4666 
L 1791 909 
L 3903 909 
L 3903 0 
L 588 0 
L 588 4666 
z
" transform="scale(0.015625)"/>
      <path id="DejaVuSans-Bold-39" d="M 641 103 
L 641 966 
Q 928 831 1190 764 
Q 1453 697 1709 697 
Q 2247 697 2547 995 
Q 2847 1294 2900 1881 
Q 2688 1725 2447 1647 
Q 2206 1569 1925 1569 
Q 1209 1569 770 1986 
Q 331 2403 331 3084 
Q 331 3838 820 4291 
Q 1309 4744 2131 4744 
Q 3044 4744 3544 4128 
Q 4044 3513 4044 2388 
Q 4044 1231 3459 570 
Q 2875 -91 1856 -91 
Q 1528 -91 1228 -42 
Q 928 6 641 103 
z
M 2125 2350 
Q 2441 2350 2600 2554 
Q 2759 2759 2759 3169 
Q 2759 3575 2600 3781 
Q 2441 3988 2125 3988 
Q 1809 3988 1650 3781 
Q 1491 3575 1491 3169 
Q 1491 2759 1650 2554 
Q 1809 2350 2125 2350 
z
" transform="scale(0.015625)"/>
      <path id="DejaVuSans-Bold-33" d="M 2981 2516 
Q 3453 2394 3698 2092 
Q 3944 1791 3944 1325 
Q 3944 631 3412 270 
Q 2881 -91 1863 -91 
Q 1503 -91 1142 -33 
Q 781 25 428 141 
L 428 1069 
Q 766 900 1098 814 
Q 1431 728 1753 728 
Q 2231 728 2486 893 
Q 2741 1059 2741 1369 
Q 2741 1688 2480 1852 
Q 2219 2016 1709 2016 
L 1228 2016 
L 1228 2791 
L 1734 2791 
Q 2188 2791 2409 2933 
Q 2631 3075 2631 3366 
Q 2631 3634 2415 3781 
Q 2200 3928 1806 3928 
Q 1516 3928 1219 3862 
Q 922 3797 628 3669 
L 628 4550 
Q 984 4650 1334 4700 
Q 1684 4750 2022 4750 
Q 2931 4750 3382 4451 
Q 3834 4153 3834 3553 
Q 3834 3144 3618 2883 
Q 3403 2622 2981 2516 
z
" transform="scale(0.015625)"/>
      <path id="DejaVuSans-Bold-25" d="M 4959 1925 
Q 4738 1925 4616 1733 
Q 4494 1541 4494 1184 
Q 4494 825 4614 633 
Q 4734 441 4959 441 
Q 5184 441 5303 633 
Q 5422 825 5422 1184 
Q 5422 1541 5301 1733 
Q 5181 1925 4959 1925 
z
M 4959 2450 
Q 5541 2450 5875 2112 
Q 6209 1775 6209 1184 
Q 6209 594 5875 251 
Q 5541 -91 4959 -91 
Q 4378 -91 4042 251 
Q 3706 594 3706 1184 
Q 3706 1772 4042 2111 
Q 4378 2450 4959 2450 
z
M 2094 -91 
L 1403 -91 
L 4319 4750 
L 5013 4750 
L 2094 -91 
z
M 1453 4750 
Q 2034 4750 2367 4411 
Q 2700 4072 2700 3481 
Q 2700 2891 2367 2550 
Q 2034 2209 1453 2209 
Q 872 2209 539 2550 
Q 206 2891 206 3481 
Q 206 4072 539 4411 
Q 872 4750 1453 4750 
z
M 1453 4225 
Q 1228 4225 1106 4031 
Q 984 3838 984 3481 
Q 984 3122 1106 2926 
Q 1228 2731 1453 2731 
Q 1678 2731 1798 2926 
Q 1919 3122 1919 3481 
Q 1919 3838 1797 4031 
Q 1675 4225 1453 4225 
z
" transform="scale(0.015625)"/>
     </defs>
     <use xlink:href="#DejaVuSans-Bold-4d"/>
     <use xlink:href="#DejaVuSans-Bold-4c" transform="translate(99.511719 0)"/>
     <use xlink:href="#DejaVuSans-Bold-41" transform="translate(163.232422 0)"/>
     <use xlink:href="#DejaVuSans-Bold-3a" transform="translate(242.5 0)"/>
     <use xlink:href="#DejaVuSans-Bold-20" transform="translate(282.490234 0)"/>
     <use xlink:href="#DejaVuSans-Bold-63" transform="translate(317.304688 0)"/>
     <use xlink:href="#DejaVuSans-Bold-61" transform="translate(376.582031 0)"/>
     <use xlink:href="#DejaVuSans-Bold-63" transform="translate(444.0625 0)"/>
     <use xlink:href="#DejaVuSans-Bold-68" transform="translate(503.339844 0)"/>
     <use xlink:href="#DejaVuSans-Bold-65" transform="translate(574.53125 0)"/>
     <use xlink:href="#DejaVuSans-Bold-20" transform="translate(642.353516 0)"/>
     <use xlink:href="#DejaVuSans-Bold-63" transform="translate(677.167969 0)"/>
     <use xlink:href="#DejaVuSans-Bold-6f" transform="translate(736.445312 0)"/>
     <use xlink:href="#DejaVuSans-Bold-6d" transform="translate(805.146484 0)"/>
     <use xlink:href="#DejaVuSans-Bold-70" transform="translate(909.345703 0)"/>
     <use xlink:href="#DejaVuSans-Bold-72" transform="translate(980.927734 0)"/>
     <use xlink:href="#DejaVuSans-Bold-65" transform="translate(1030.244141 0)"/>
     <use xlink:href="#DejaVuSans-Bold-73" transform="translate(1098.066406 0)"/>
     <use xlink:href="#DejaVuSans-Bold-73" transform="translate(1157.587891 0)"/>
     <use xlink:href="#DejaVuSans-Bold-65" transform="translate(1217.109375 0)"/>
     <use xlink:href="#DejaVuSans-Bold-64" transform="translate(1284.931641 0)"/>
     <use xlink:href="#DejaVuSans-Bold-20" transform="translate(1356.513672 0)"/>
     <use xlink:href="#DejaVuSans-Bold-6c" transform="translate(1391.328125 0)"/>
     <use xlink:href="#DejaVuSans-Bold-61" transform="translate(1425.605469 0)"/>
     <use xlink:href="#DejaVuSans-Bold-74" transform="translate(1493.085938 0)"/>
     <use xlink:href="#DejaVuSans-Bold-65" transform="translate(1540.888672 0)"/>
     <use xlink:href="#DejaVuSans-Bold-6e" transform="translate(1608.710938 0)"/>
     <use xlink:href="#DejaVuSans-Bold-74" transform="translate(1679.902344 0)"/>
     <use xlink:href="#DejaVuSans-Bold-20" transform="translate(1727.705078 0)"/>
     <use xlink:href="#DejaVuSans-Bold-28" transform="translate(1762.519531 0)"/>
     <use xlink:href="#DejaVuSans-Bold-39" transform="translate(1808.222656 0)"/>
     <use xlink:href="#DejaVuSans-Bold-33" transform="translate(1877.802734 0)"/>
     <use xlink:href="#DejaVuSans-Bold-25" transform="translate(1947.382812 0)"/>
     <use xlink:href="#DejaVuSans-Bold-20" transform="translate(2047.578125 0)"/>
     <use xlink:href="#DejaVuSans-Bold-6c" transform="translate(2082.392578 0)"/>
     <use xlink:href="#DejaVuSans-Bold-65" transform="translate(2116.669922 0)"/>
     <use xlink:href="#DejaVuSans-Bold-73" transform="translate(2184.492188 0)"/>
     <use xlink:href="#DejaVuSans-Bold-73" transform="translate(2244.013672 0)"/>
    </g>
    <!-- in DeepSeek-V2 configuration) -->
    <g style="fill: #006644" transform="translate(298.06643 380.133554) scale(0.075 -0.075)">
     <defs>
      <path id="DejaVuSans-Bold-44" d="M 1791 3756 
L 1791 909 
L 2222 909 
Q 2959 909 3348 1275 
Q 3738 1641 3738 2338 
Q 3738 3031 3350 3393 
Q 2963 3756 2222 3756 
L 1791 3756 
z
M 588 4666 
L 1856 4666 
Q 2919 4666 3439 4514 
Q 3959 4363 4331 4000 
Q 4659 3684 4818 3271 
Q 4978 2859 4978 2338 
Q 4978 1809 4818 1395 
Q 4659 981 4331 666 
Q 3956 303 3431 151 
Q 2906 0 1856 0 
L 588 0 
L 588 4666 
z
" transform="scale(0.015625)"/>
      <path id="DejaVuSans-Bold-32" d="M 1844 884 
L 3897 884 
L 3897 0 
L 506 0 
L 506 884 
L 2209 2388 
Q 2438 2594 2547 2791 
Q 2656 2988 2656 3200 
Q 2656 3528 2436 3728 
Q 2216 3928 1850 3928 
Q 1569 3928 1234 3808 
Q 900 3688 519 3450 
L 519 4475 
Q 925 4609 1322 4679 
Q 1719 4750 2100 4750 
Q 2938 4750 3402 4381 
Q 3866 4013 3866 3353 
Q 3866 2972 3669 2642 
Q 3472 2313 2841 1759 
L 1844 884 
z
" transform="scale(0.015625)"/>
     </defs>
     <use xlink:href="#DejaVuSans-Bold-69"/>
     <use xlink:href="#DejaVuSans-Bold-6e" transform="translate(34.277344 0)"/>
     <use xlink:href="#DejaVuSans-Bold-20" transform="translate(105.46875 0)"/>
     <use xlink:href="#DejaVuSans-Bold-44" transform="translate(140.283203 0)"/>
     <use xlink:href="#DejaVuSans-Bold-65" transform="translate(223.291016 0)"/>
     <use xlink:href="#DejaVuSans-Bold-65" transform="translate(291.113281 0)"/>
     <use xlink:href="#DejaVuSans-Bold-70" transform="translate(358.935547 0)"/>
     <use xlink:href="#DejaVuSans-Bold-53" transform="translate(430.517578 0)"/>
     <use xlink:href="#DejaVuSans-Bold-65" transform="translate(502.539062 0)"/>
     <use xlink:href="#DejaVuSans-Bold-65" transform="translate(570.361328 0)"/>
     <use xlink:href="#DejaVuSans-Bold-6b" transform="translate(638.183594 0)"/>
     <use xlink:href="#DejaVuSans-Bold-2d" transform="translate(704.6875 0)"/>
     <use xlink:href="#DejaVuSans-Bold-56" transform="translate(738.941406 0)"/>
     <use xlink:href="#DejaVuSans-Bold-32" transform="translate(816.333984 0)"/>
     <use xlink:href="#DejaVuSans-Bold-20" transform="translate(885.914062 0)"/>
     <use xlink:href="#DejaVuSans-Bold-63" transform="translate(920.728516 0)"/>
     <use xlink:href="#DejaVuSans-Bold-6f" transform="translate(980.005859 0)"/>
     <use xlink:href="#DejaVuSans-Bold-6e" transform="translate(1048.707031 0)"/>
     <use xlink:href="#DejaVuSans-Bold-66" transform="translate(1119.898438 0)"/>
     <use xlink:href="#DejaVuSans-Bold-69" transform="translate(1163.404297 0)"/>
     <use xlink:href="#DejaVuSans-Bold-67" transform="translate(1197.681641 0)"/>
     <use xlink:href="#DejaVuSans-Bold-75" transform="translate(1269.263672 0)"/>
     <use xlink:href="#DejaVuSans-Bold-72" transform="translate(1340.455078 0)"/>
     <use xlink:href="#DejaVuSans-Bold-61" transform="translate(1389.771484 0)"/>
     <use xlink:href="#DejaVuSans-Bold-74" transform="translate(1457.251953 0)"/>
     <use xlink:href="#DejaVuSans-Bold-69" transform="translate(1505.054688 0)"/>
     <use xlink:href="#DejaVuSans-Bold-6f" transform="translate(1539.332031 0)"/>
     <use xlink:href="#DejaVuSans-Bold-6e" transform="translate(1608.033203 0)"/>
     <use xlink:href="#DejaVuSans-Bold-29" transform="translate(1679.224609 0)"/>
    </g>
   </g>
   <g id="text_9">
    <!-- ⚠ Simplified view. Real MLA implementations may absorb projections -->
    <g style="fill: #8993a4" transform="translate(120.365189 422.383941) scale(0.075 -0.075)">
     <defs>
      <path id="DejaVuSans-Oblique-26a0" d="M 2875 4616 
L 2897 4616 
L 5378 28 
L 5378 0 
L 369 0 
L 344 28 
L 316 28 
Q 2775 4516 2875 4616 
z
M 2847 4034 
L 791 319 
L 791 266 
L 4928 266 
L 4928 294 
Q 2938 3947 2847 4034 
z
M 2875 3347 
Q 3113 3347 3113 3138 
Q 2953 1241 2875 1241 
Q 2803 1241 2638 3166 
Q 2713 3347 2875 3347 
z
M 2872 1013 
Q 2931 1013 2987 981 
Q 3044 950 3076 894 
Q 3109 838 3109 775 
Q 3109 713 3078 656 
Q 3047 600 2989 569 
Q 2931 538 2872 538 
Q 2809 538 2753 569 
Q 2697 600 2665 656 
Q 2634 713 2634 775 
Q 2634 838 2665 894 
Q 2697 950 2753 981 
Q 2809 1013 2872 1013 
z
" transform="scale(0.015625)"/>
      <path id="DejaVuSans-Oblique-53" d="M 3859 4513 
L 3738 3897 
Q 3422 4066 3111 4152 
Q 2800 4238 2509 4238 
Q 1944 4238 1609 3991 
Q 1275 3744 1275 3334 
Q 1275 3109 1398 2989 
Q 1522 2869 2034 2731 
L 2413 2638 
Q 3053 2472 3303 2217 
Q 3553 1963 3553 1503 
Q 3553 797 2998 353 
Q 2444 -91 1538 -91 
Q 1166 -91 791 -17 
Q 416 56 38 206 
L 166 856 
Q 513 641 861 531 
Q 1209 422 1556 422 
Q 2147 422 2503 684 
Q 2859 947 2859 1369 
Q 2859 1650 2717 1795 
Q 2575 1941 2106 2059 
L 1728 2156 
Q 1081 2325 845 2545 
Q 609 2766 609 3163 
Q 609 3859 1145 4304 
Q 1681 4750 2541 4750 
Q 2875 4750 3203 4690 
Q 3531 4631 3859 4513 
z
" transform="scale(0.015625)"/>
      <path id="DejaVuSans-Oblique-6c" d="M 1172 4863 
L 1747 4863 
L 800 0 
L 225 0 
L 1172 4863 
z
" transform="scale(0.015625)"/>
      <path id="DejaVuSans-Oblique-66" d="M 3059 4863 
L 2969 4384 
L 2419 4384 
Q 2106 4384 1964 4261 
Q 1822 4138 1753 3809 
L 1691 3500 
L 2638 3500 
L 2553 3053 
L 1606 3053 
L 1013 0 
L 434 0 
L 1031 3053 
L 481 3053 
L 563 3500 
L 1113 3500 
L 1159 3744 
Q 1278 4363 1576 4613 
Q 1875 4863 2516 4863 
L 3059 4863 
z
" transform="scale(0.015625)"/>
      <path id="DejaVuSans-Oblique-64" d="M 2675 525 
Q 2444 222 2128 65 
Q 1813 -91 1428 -91 
Q 903 -91 598 267 
Q 294 625 294 1247 
Q 294 1766 478 2236 
Q 663 2706 1013 3078 
Q 1244 3325 1534 3454 
Q 1825 3584 2144 3584 
Q 2481 3584 2739 3421 
Q 2997 3259 3138 2956 
L 3513 4863 
L 4091 4863 
L 3144 0 
L 2566 0 
L 2675 525 
z
M 891 1350 
Q 891 897 1095 644 
Q 1300 391 1663 391 
Q 1931 391 2161 520 
Q 2391 650 2566 903 
Q 2750 1166 2856 1509 
Q 2963 1853 2963 2188 
Q 2963 2622 2758 2865 
Q 2553 3109 2194 3109 
Q 1922 3109 1687 2981 
Q 1453 2853 1288 2613 
Q 1106 2353 998 2009 
Q 891 1666 891 1350 
z
" transform="scale(0.015625)"/>
      <path id="DejaVuSans-Oblique-76" d="M 459 3500 
L 1069 3500 
L 1581 525 
L 3256 3500 
L 3866 3500 
L 1875 0 
L 1100 0 
L 459 3500 
z
" transform="scale(0.015625)"/>
      <path id="DejaVuSans-Oblique-2e" d="M 525 794 
L 1184 794 
L 1031 0 
L 372 0 
L 525 794 
z
" transform="scale(0.015625)"/>
      <path id="DejaVuSans-Oblique-52" d="M 1613 4147 
L 1294 2491 
L 2106 2491 
Q 2584 2491 2879 2755 
Q 3175 3019 3175 3444 
Q 3175 3784 2976 3965 
Q 2778 4147 2406 4147 
L 1613 4147 
z
M 2772 2241 
Q 2972 2194 3105 2009 
Q 3238 1825 3413 1275 
L 3809 0 
L 3144 0 
L 2778 1197 
Q 2638 1659 2453 1815 
Q 2269 1972 1888 1972 
L 1191 1972 
L 806 0 
L 172 0 
L 1081 4666 
L 2503 4666 
Q 3150 4666 3495 4373 
Q 3841 4081 3841 3531 
Q 3841 3044 3547 2687 
Q 3253 2331 2772 2241 
z
" transform="scale(0.015625)"/>
      <path id="DejaVuSans-Oblique-4d" d="M 1081 4666 
L 2028 4666 
L 2572 1522 
L 4378 4666 
L 5350 4666 
L 4441 0 
L 3828 0 
L 4622 4091 
L 2791 897 
L 2175 897 
L 1581 4103 
L 788 0 
L 172 0 
L 1081 4666 
z
" transform="scale(0.015625)"/>
      <path id="DejaVuSans-Oblique-41" d="M 2356 4666 
L 3072 4666 
L 3938 0 
L 3278 0 
L 3084 1197 
L 984 1197 
L 325 0 
L -341 0 
L 2356 4666 
z
M 2584 4044 
L 1275 1722 
L 2988 1722 
L 2584 4044 
z
" transform="scale(0.015625)"/>
      <path id="DejaVuSans-Oblique-79" d="M 1588 -325 
Q 1188 -997 936 -1164 
Q 684 -1331 294 -1331 
L -159 -1331 
L -63 -850 
L 269 -850 
Q 509 -850 678 -719 
Q 847 -588 1056 -206 
L 1234 128 
L 459 3500 
L 1069 3500 
L 1650 819 
L 3256 3500 
L 3859 3500 
L 1588 -325 
z
" transform="scale(0.015625)"/>
      <path id="DejaVuSans-Oblique-62" d="M 3169 2138 
Q 3169 2591 2961 2847 
Q 2753 3103 2388 3103 
Q 2122 3103 1889 2973 
Q 1656 2844 1484 2597 
Q 1303 2338 1198 1995 
Q 1094 1653 1094 1313 
Q 1094 881 1298 636 
Q 1503 391 1863 391 
Q 2134 391 2365 517 
Q 2597 644 2772 891 
Q 2950 1147 3059 1487 
Q 3169 1828 3169 2138 
z
M 1381 2969 
Q 1594 3256 1914 3420 
Q 2234 3584 2584 3584 
Q 3122 3584 3439 3221 
Q 3756 2859 3756 2241 
Q 3756 1734 3570 1259 
Q 3384 784 3041 416 
Q 2816 172 2522 40 
Q 2228 -91 1906 -91 
Q 1566 -91 1316 65 
Q 1066 222 909 531 
L 806 0 
L 231 0 
L 1178 4863 
L 1753 4863 
L 1381 2969 
z
" transform="scale(0.015625)"/>
     </defs>
     <use xlink:href="#DejaVuSans-Oblique-26a0"/>
     <use xlink:href="#DejaVuSans-Oblique-20" transform="translate(88.964844 0)"/>
     <use xlink:href="#DejaVuSans-Oblique-53" transform="translate(120.751953 0)"/>
     <use xlink:href="#DejaVuSans-Oblique-69" transform="translate(184.228516 0)"/>
     <use xlink:href="#DejaVuSans-Oblique-6d" transform="translate(212.011719 0)"/>
     <use xlink:href="#DejaVuSans-Oblique-70" transform="translate(309.423828 0)"/>
     <use xlink:href="#DejaVuSans-Oblique-6c" transform="translate(372.900391 0)"/>
     <use xlink:href="#DejaVuSans-Oblique-69" transform="translate(400.683594 0)"/>
     <use xlink:href="#DejaVuSans-Oblique-66" transform="translate(428.466797 0)"/>
     <use xlink:href="#DejaVuSans-Oblique-69" transform="translate(463.671875 0)"/>
     <use xlink:href="#DejaVuSans-Oblique-65" transform="translate(491.455078 0)"/>
     <use xlink:href="#DejaVuSans-Oblique-64" transform="translate(552.978516 0)"/>
     <use xlink:href="#DejaVuSans-Oblique-20" transform="translate(616.455078 0)"/>
     <use xlink:href="#DejaVuSans-Oblique-76" transform="translate(648.242188 0)"/>
     <use xlink:href="#DejaVuSans-Oblique-69" transform="translate(707.421875 0)"/>
     <use xlink:href="#DejaVuSans-Oblique-65" transform="translate(735.205078 0)"/>
     <use xlink:href="#DejaVuSans-Oblique-77" transform="translate(796.728516 0)"/>
     <use xlink:href="#DejaVuSans-Oblique-2e" transform="translate(872.140625 0)"/>
     <use xlink:href="#DejaVuSans-Oblique-20" transform="translate(903.927734 0)"/>
     <use xlink:href="#DejaVuSans-Oblique-52" transform="translate(935.714844 0)"/>
     <use xlink:href="#DejaVuSans-Oblique-65" transform="translate(1005.197266 0)"/>
     <use xlink:href="#DejaVuSans-Oblique-61" transform="translate(1066.720703 0)"/>
     <use xlink:href="#DejaVuSans-Oblique-6c" transform="translate(1128 0)"/>
     <use xlink:href="#DejaVuSans-Oblique-20" transform="translate(1155.783203 0)"/>
     <use xlink:href="#DejaVuSans-Oblique-4d" transform="translate(1187.570312 0)"/>
     <use xlink:href="#DejaVuSans-Oblique-4c" transform="translate(1273.849609 0)"/>
     <use xlink:href="#DejaVuSans-Oblique-41" transform="translate(1329.5625 0)"/>
     <use xlink:href="#DejaVuSans-Oblique-20" transform="translate(1397.970703 0)"/>
     <use xlink:href="#DejaVuSans-Oblique-69" transform="translate(1429.757812 0)"/>
     <use xlink:href="#DejaVuSans-Oblique-6d" transform="translate(1457.541016 0)"/>
     <use xlink:href="#DejaVuSans-Oblique-70" transform="translate(1554.953125 0)"/>
     <use xlink:href="#DejaVuSans-Oblique-6c" transform="translate(1618.429688 0)"/>
     <use xlink:href="#DejaVuSans-Oblique-65" transform="translate(1646.212891 0)"/>
     <use xlink:href="#DejaVuSans-Oblique-6d" transform="translate(1707.736328 0)"/>
     <use xlink:href="#DejaVuSans-Oblique-65" transform="translate(1805.148438 0)"/>
     <use xlink:href="#DejaVuSans-Oblique-6e" transform="translate(1866.671875 0)"/>
     <use xlink:href="#DejaVuSans-Oblique-74" transform="translate(1930.050781 0)"/>
     <use xlink:href="#DejaVuSans-Oblique-61" transform="translate(1969.259766 0)"/>
     <use xlink:href="#DejaVuSans-Oblique-74" transform="translate(2030.539062 0)"/>
     <use xlink:href="#DejaVuSans-Oblique-69" transform="translate(2069.748047 0)"/>
     <use xlink:href="#DejaVuSans-Oblique-6f" transform="translate(2097.53125 0)"/>
     <use xlink:href="#DejaVuSans-Oblique-6e" transform="translate(2158.712891 0)"/>
     <use xlink:href="#DejaVuSans-Oblique-73" transform="translate(2222.091797 0)"/>
     <use xlink:href="#DejaVuSans-Oblique-20" transform="translate(2274.191406 0)"/>
     <use xlink:href="#DejaVuSans-Oblique-6d" transform="translate(2305.978516 0)"/>
     <use xlink:href="#DejaVuSans-Oblique-61" transform="translate(2403.390625 0)"/>
     <use xlink:href="#DejaVuSans-Oblique-79" transform="translate(2464.669922 0)"/>
     <use xlink:href="#DejaVuSans-Oblique-20" transform="translate(2523.849609 0)"/>
     <use xlink:href="#DejaVuSans-Oblique-61" transform="translate(2555.636719 0)"/>
     <use xlink:href="#DejaVuSans-Oblique-62" transform="translate(2616.916016 0)"/>
     <use xlink:href="#DejaVuSans-Oblique-73" transform="translate(2680.392578 0)"/>
     <use xlink:href="#DejaVuSans-Oblique-6f" transform="translate(2732.492188 0)"/>
     <use xlink:href="#DejaVuSans-Oblique-72" transform="translate(2793.673828 0)"/>
     <use xlink:href="#DejaVuSans-Oblique-62" transform="translate(2834.787109 0)"/>
     <use xlink:href="#DejaVuSans-Oblique-20" transform="translate(2898.263672 0)"/>
     <use xlink:href="#DejaVuSans-Oblique-70" transform="translate(2930.050781 0)"/>
     <use xlink:href="#DejaVuSans-Oblique-72" transform="translate(2993.527344 0)"/>
     <use xlink:href="#DejaVuSans-Oblique-6f" transform="translate(3034.640625 0)"/>
     <use xlink:href="#DejaVuSans-Oblique-6a" transform="translate(3095.822266 0)"/>
     <use xlink:href="#DejaVuSans-Oblique-65" transform="translate(3123.605469 0)"/>
     <use xlink:href="#DejaVuSans-Oblique-63" transform="translate(3185.128906 0)"/>
     <use xlink:href="#DejaVuSans-Oblique-74" transform="translate(3240.109375 0)"/>
     <use xlink:href="#DejaVuSans-Oblique-69" transform="translate(3279.318359 0)"/>
     <use xlink:href="#DejaVuSans-Oblique-6f" transform="translate(3307.101562 0)"/>
     <use xlink:href="#DejaVuSans-Oblique-6e" transform="translate(3368.283203 0)"/>
     <use xlink:href="#DejaVuSans-Oblique-73" transform="translate(3431.662109 0)"/>
    </g>
    <!-- so full K/V are not explicitly reconstructed. Exact savings are config-dependent. -->
    <g style="fill: #8993a4" transform="translate(101.224369 430.7823) scale(0.075 -0.075)">
     <defs>
      <path id="DejaVuSans-Oblique-75" d="M 428 1388 
L 838 3500 
L 1416 3500 
L 1006 1409 
Q 975 1256 961 1147 
Q 947 1038 947 966 
Q 947 700 1109 554 
Q 1272 409 1569 409 
Q 2031 409 2368 721 
Q 2706 1034 2809 1563 
L 3194 3500 
L 3769 3500 
L 3091 0 
L 2516 0 
L 2631 550 
Q 2388 244 2052 76 
Q 1716 -91 1338 -91 
Q 878 -91 622 161 
Q 366 413 366 863 
Q 366 956 381 1097 
Q 397 1238 428 1388 
z
" transform="scale(0.015625)"/>
      <path id="DejaVuSans-Oblique-4b" d="M 1081 4666 
L 1716 4666 
L 1331 2700 
L 3781 4666 
L 4622 4666 
L 1850 2438 
L 3878 0 
L 3109 0 
L 1247 2272 
L 806 0 
L 172 0 
L 1081 4666 
z
" transform="scale(0.015625)"/>
      <path id="DejaVuSans-Oblique-2f" d="M 2175 4666 
L 2731 4666 
L 84 -594 
L -469 -594 
L 2175 4666 
z
" transform="scale(0.015625)"/>
      <path id="DejaVuSans-Oblique-56" d="M 1319 0 
L 500 4666 
L 1119 4666 
L 1797 653 
L 4063 4666 
L 4750 4666 
L 2053 0 
L 1319 0 
z
" transform="scale(0.015625)"/>
      <path id="DejaVuSans-Oblique-78" d="M 3841 3500 
L 2234 1784 
L 3219 0 
L 2559 0 
L 1819 1388 
L 531 0 
L -166 0 
L 1556 1844 
L 641 3500 
L 1300 3500 
L 1972 2234 
L 3144 3500 
L 3841 3500 
z
" transform="scale(0.015625)"/>
      <path id="DejaVuSans-Oblique-45" d="M 1081 4666 
L 4031 4666 
L 3928 4134 
L 1606 4134 
L 1338 2753 
L 3566 2753 
L 3463 2222 
L 1234 2222 
L 909 531 
L 3284 531 
L 3181 0 
L 172 0 
L 1081 4666 
z
" transform="scale(0.015625)"/>
      <path id="DejaVuSans-Oblique-67" d="M 3816 3500 
L 3219 434 
Q 3047 -456 2561 -893 
Q 2075 -1331 1253 -1331 
Q 950 -1331 690 -1286 
Q 431 -1241 206 -1147 
L 313 -588 
Q 525 -725 762 -790 
Q 1000 -856 1269 -856 
Q 1816 -856 2167 -557 
Q 2519 -259 2631 300 
L 2681 563 
Q 2441 288 2122 144 
Q 1803 0 1434 0 
Q 903 0 598 351 
Q 294 703 294 1319 
Q 294 1803 478 2267 
Q 663 2731 997 3091 
Q 1219 3328 1514 3456 
Q 1809 3584 2131 3584 
Q 2484 3584 2746 3420 
Q 3009 3256 3138 2956 
L 3238 3500 
L 3816 3500 
z
M 2950 2216 
Q 2950 2641 2750 2872 
Q 2550 3103 2181 3103 
Q 1953 3103 1747 3012 
Q 1541 2922 1394 2759 
Q 1156 2491 1023 2127 
Q 891 1763 891 1375 
Q 891 944 1092 712 
Q 1294 481 1672 481 
Q 2219 481 2584 976 
Q 2950 1472 2950 2216 
z
" transform="scale(0.015625)"/>
     </defs>
     <use xlink:href="#DejaVuSans-Oblique-73"/>
     <use xlink:href="#DejaVuSans-Oblique-6f" transform="translate(52.099609 0)"/>
     <use xlink:href="#DejaVuSans-Oblique-20" transform="translate(113.28125 0)"/>
     <use xlink:href="#DejaVuSans-Oblique-66" transform="translate(145.068359 0)"/>
     <use xlink:href="#DejaVuSans-Oblique-75" transform="translate(180.273438 0)"/>
     <use xlink:href="#DejaVuSans-Oblique-6c" transform="translate(243.652344 0)"/>
     <use xlink:href="#DejaVuSans-Oblique-6c" transform="translate(271.435547 0)"/>
     <use xlink:href="#DejaVuSans-Oblique-20" transform="translate(299.21875 0)"/>
     <use xlink:href="#DejaVuSans-Oblique-4b" transform="translate(331.005859 0)"/>
     <use xlink:href="#DejaVuSans-Oblique-2f" transform="translate(396.582031 0)"/>
     <use xlink:href="#DejaVuSans-Oblique-56" transform="translate(430.273438 0)"/>
     <use xlink:href="#DejaVuSans-Oblique-20" transform="translate(498.681641 0)"/>
     <use xlink:href="#DejaVuSans-Oblique-61" transform="translate(530.46875 0)"/>
     <use xlink:href="#DejaVuSans-Oblique-72" transform="translate(591.748047 0)"/>
     <use xlink:href="#DejaVuSans-Oblique-65" transform="translate(632.861328 0)"/>
     <use xlink:href="#DejaVuSans-Oblique-20" transform="translate(694.384766 0)"/>
     <use xlink:href="#DejaVuSans-Oblique-6e" transform="translate(726.171875 0)"/>
     <use xlink:href="#DejaVuSans-Oblique-6f" transform="translate(789.550781 0)"/>
     <use xlink:href="#DejaVuSans-Oblique-74" transform="translate(850.732422 0)"/>
     <use xlink:href="#DejaVuSans-Oblique-20" transform="translate(889.941406 0)"/>
     <use xlink:href="#DejaVuSans-Oblique-65" transform="translate(921.728516 0)"/>
     <use xlink:href="#DejaVuSans-Oblique-78" transform="translate(983.251953 0)"/>
     <use xlink:href="#DejaVuSans-Oblique-70" transform="translate(1042.431641 0)"/>
     <use xlink:href="#DejaVuSans-Oblique-6c" transform="translate(1105.908203 0)"/>
     <use xlink:href="#DejaVuSans-Oblique-69" transform="translate(1133.691406 0)"/>
     <use xlink:href="#DejaVuSans-Oblique-63" transform="translate(1161.474609 0)"/>
     <use xlink:href="#DejaVuSans-Oblique-69" transform="translate(1216.455078 0)"/>
     <use xlink:href="#DejaVuSans-Oblique-74" transform="translate(1244.238281 0)"/>
     <use xlink:href="#DejaVuSans-Oblique-6c" transform="translate(1283.447266 0)"/>
     <use xlink:href="#DejaVuSans-Oblique-79" transform="translate(1311.230469 0)"/>
     <use xlink:href="#DejaVuSans-Oblique-20" transform="translate(1370.410156 0)"/>
     <use xlink:href="#DejaVuSans-Oblique-72" transform="translate(1402.197266 0)"/>
     <use xlink:href="#DejaVuSans-Oblique-65" transform="translate(1443.310547 0)"/>
     <use xlink:href="#DejaVuSans-Oblique-63" transform="translate(1504.833984 0)"/>
     <use xlink:href="#DejaVuSans-Oblique-6f" transform="translate(1559.814453 0)"/>
     <use xlink:href="#DejaVuSans-Oblique-6e" transform="translate(1620.996094 0)"/>
     <use xlink:href="#DejaVuSans-Oblique-73" transform="translate(1684.375 0)"/>
     <use xlink:href="#DejaVuSans-Oblique-74" transform="translate(1736.474609 0)"/>
     <use xlink:href="#DejaVuSans-Oblique-72" transform="translate(1775.683594 0)"/>
     <use xlink:href="#DejaVuSans-Oblique-75" transform="translate(1816.796875 0)"/>
     <use xlink:href="#DejaVuSans-Oblique-63" transform="translate(1880.175781 0)"/>
     <use xlink:href="#DejaVuSans-Oblique-74" transform="translate(1935.15625 0)"/>
     <use xlink:href="#DejaVuSans-Oblique-65" transform="translate(1974.365234 0)"/>
     <use xlink:href="#DejaVuSans-Oblique-64" transform="translate(2035.888672 0)"/>
     <use xlink:href="#DejaVuSans-Oblique-2e" transform="translate(2099.365234 0)"/>
     <use xlink:href="#DejaVuSans-Oblique-20" transform="translate(2131.152344 0)"/>
     <use xlink:href="#DejaVuSans-Oblique-45" transform="translate(2162.939453 0)"/>
     <use xlink:href="#DejaVuSans-Oblique-78" transform="translate(2226.123047 0)"/>
     <use xlink:href="#DejaVuSans-Oblique-61" transform="translate(2285.302734 0)"/>
     <use xlink:href="#DejaVuSans-Oblique-63" transform="translate(2346.582031 0)"/>
     <use xlink:href="#DejaVuSans-Oblique-74" transform="translate(2401.5625 0)"/>
     <use xlink:href="#DejaVuSans-Oblique-20" transform="translate(2440.771484 0)"/>
     <use xlink:href="#DejaVuSans-Oblique-73" transform="translate(2472.558594 0)"/>
     <use xlink:href="#DejaVuSans-Oblique-61" transform="translate(2524.658203 0)"/>
     <use xlink:href="#DejaVuSans-Oblique-76" transform="translate(2585.9375 0)"/>
     <use xlink:href="#DejaVuSans-Oblique-69" transform="translate(2645.117188 0)"/>
     <use xlink:href="#DejaVuSans-Oblique-6e" transform="translate(2672.900391 0)"/>
     <use xlink:href="#DejaVuSans-Oblique-67" transform="translate(2736.279297 0)"/>
     <use xlink:href="#DejaVuSans-Oblique-73" transform="translate(2799.755859 0)"/>
     <use xlink:href="#DejaVuSans-Oblique-20" transform="translate(2851.855469 0)"/>
     <use xlink:href="#DejaVuSans-Oblique-61" transform="translate(2883.642578 0)"/>
     <use xlink:href="#DejaVuSans-Oblique-72" transform="translate(2944.921875 0)"/>
     <use xlink:href="#DejaVuSans-Oblique-65" transform="translate(2986.035156 0)"/>
     <use xlink:href="#DejaVuSans-Oblique-20" transform="translate(3047.558594 0)"/>
     <use xlink:href="#DejaVuSans-Oblique-63" transform="translate(3079.345703 0)"/>
     <use xlink:href="#DejaVuSans-Oblique-6f" transform="translate(3134.326172 0)"/>
     <use xlink:href="#DejaVuSans-Oblique-6e" transform="translate(3195.507812 0)"/>
     <use xlink:href="#DejaVuSans-Oblique-66" transform="translate(3258.886719 0)"/>
     <use xlink:href="#DejaVuSans-Oblique-69" transform="translate(3294.091797 0)"/>
     <use xlink:href="#DejaVuSans-Oblique-67" transform="translate(3321.875 0)"/>
     <use xlink:href="#DejaVuSans-Oblique-2d" transform="translate(3385.351562 0)"/>
     <use xlink:href="#DejaVuSans-Oblique-64" transform="translate(3421.435547 0)"/>
     <use xlink:href="#DejaVuSans-Oblique-65" transform="translate(3484.912109 0)"/>
     <use xlink:href="#DejaVuSans-Oblique-70" transform="translate(3546.435547 0)"/>
     <use xlink:href="#DejaVuSans-Oblique-65" transform="translate(3609.912109 0)"/>
     <use xlink:href="#DejaVuSans-Oblique-6e" transform="translate(3671.435547 0)"/>
     <use xlink:href="#DejaVuSans-Oblique-64" transform="translate(3734.814453 0)"/>
     <use xlink:href="#DejaVuSans-Oblique-65" transform="translate(3798.291016 0)"/>
     <use xlink:href="#DejaVuSans-Oblique-6e" transform="translate(3859.814453 0)"/>
     <use xlink:href="#DejaVuSans-Oblique-74" transform="translate(3923.193359 0)"/>
     <use xlink:href="#DejaVuSans-Oblique-2e" transform="translate(3962.402344 0)"/>
    </g>
   </g>
   <g id="text_10">
    <!-- Multi-Head Latent Attention (MLA) — Simplified Conceptual View -->
    <g transform="translate(31.086713 16.318125) scale(0.12 -0.12)">
     <defs>
      <path id="DejaVuSans-Bold-2014" d="M 344 2156 
L 6056 2156 
L 6056 1350 
L 344 1350 
L 344 2156 
z
" transform="scale(0.015625)"/>
      <path id="DejaVuSans-Bold-77" d="M 225 3500 
L 1313 3500 
L 1900 1088 
L 2491 3500 
L 3425 3500 
L 4013 1113 
L 4603 3500 
L 5691 3500 
L 4769 0 
L 3547 0 
L 2956 2406 
L 2369 0 
L 1147 0 
L 225 3500 
z
" transform="scale(0.015625)"/>
     </defs>
     <use xlink:href="#DejaVuSans-Bold-4d"/>
     <use xlink:href="#DejaVuSans-Bold-75" transform="translate(99.511719 0)"/>
     <use xlink:href="#DejaVuSans-Bold-6c" transform="translate(170.703125 0)"/>
     <use xlink:href="#DejaVuSans-Bold-74" transform="translate(204.980469 0)"/>
     <use xlink:href="#DejaVuSans-Bold-69" transform="translate(252.783203 0)"/>
     <use xlink:href="#DejaVuSans-Bold-2d" transform="translate(287.060547 0)"/>
     <use xlink:href="#DejaVuSans-Bold-48" transform="translate(328.564453 0)"/>
     <use xlink:href="#DejaVuSans-Bold-65" transform="translate(412.255859 0)"/>
     <use xlink:href="#DejaVuSans-Bold-61" transform="translate(480.078125 0)"/>
     <use xlink:href="#DejaVuSans-Bold-64" transform="translate(547.558594 0)"/>
     <use xlink:href="#DejaVuSans-Bold-20" transform="translate(619.140625 0)"/>
     <use xlink:href="#DejaVuSans-Bold-4c" transform="translate(653.955078 0)"/>
     <use xlink:href="#DejaVuSans-Bold-61" transform="translate(717.675781 0)"/>
     <use xlink:href="#DejaVuSans-Bold-74" transform="translate(785.15625 0)"/>
     <use xlink:href="#DejaVuSans-Bold-65" transform="translate(832.958984 0)"/>
     <use xlink:href="#DejaVuSans-Bold-6e" transform="translate(900.78125 0)"/>
     <use xlink:href="#DejaVuSans-Bold-74" transform="translate(971.972656 0)"/>
     <use xlink:href="#DejaVuSans-Bold-20" transform="translate(1019.775391 0)"/>
     <use xlink:href="#DejaVuSans-Bold-41" transform="translate(1054.589844 0)"/>
     <use xlink:href="#DejaVuSans-Bold-74" transform="translate(1131.982422 0)"/>
     <use xlink:href="#DejaVuSans-Bold-74" transform="translate(1179.785156 0)"/>
     <use xlink:href="#DejaVuSans-Bold-65" transform="translate(1227.587891 0)"/>
     <use xlink:href="#DejaVuSans-Bold-6e" transform="translate(1295.410156 0)"/>
     <use xlink:href="#DejaVuSans-Bold-74" transform="translate(1366.601562 0)"/>
     <use xlink:href="#DejaVuSans-Bold-69" transform="translate(1414.404297 0)"/>
     <use xlink:href="#DejaVuSans-Bold-6f" transform="translate(1448.681641 0)"/>
     <use xlink:href="#DejaVuSans-Bold-6e" transform="translate(1517.382812 0)"/>
     <use xlink:href="#DejaVuSans-Bold-20" transform="translate(1588.574219 0)"/>
     <use xlink:href="#DejaVuSans-Bold-28" transform="translate(1623.388672 0)"/>
     <use xlink:href="#DejaVuSans-Bold-4d" transform="translate(1669.091797 0)"/>
     <use xlink:href="#DejaVuSans-Bold-4c" transform="translate(1768.603516 0)"/>
     <use xlink:href="#DejaVuSans-Bold-41" transform="translate(1832.324219 0)"/>
     <use xlink:href="#DejaVuSans-Bold-29" transform="translate(1909.716797 0)"/>
     <use xlink:href="#DejaVuSans-Bold-20" transform="translate(1955.419922 0)"/>
     <use xlink:href="#DejaVuSans-Bold-2014" transform="translate(1990.234375 0)"/>
     <use xlink:href="#DejaVuSans-Bold-20" transform="translate(2090.234375 0)"/>
     <use xlink:href="#DejaVuSans-Bold-53" transform="translate(2125.048828 0)"/>
     <use xlink:href="#DejaVuSans-Bold-69" transform="translate(2197.070312 0)"/>
     <use xlink:href="#DejaVuSans-Bold-6d" transform="translate(2231.347656 0)"/>
     <use xlink:href="#DejaVuSans-Bold-70" transform="translate(2335.546875 0)"/>
     <use xlink:href="#DejaVuSans-Bold-6c" transform="translate(2407.128906 0)"/>
     <use xlink:href="#DejaVuSans-Bold-69" transform="translate(2441.40625 0)"/>
     <use xlink:href="#DejaVuSans-Bold-66" transform="translate(2475.683594 0)"/>
     <use xlink:href="#DejaVuSans-Bold-69" transform="translate(2519.189453 0)"/>
     <use xlink:href="#DejaVuSans-Bold-65" transform="translate(2553.466797 0)"/>
     <use xlink:href="#DejaVuSans-Bold-64" transform="translate(2621.289062 0)"/>
     <use xlink:href="#DejaVuSans-Bold-20" transform="translate(2692.871094 0)"/>
     <use xlink:href="#DejaVuSans-Bold-43" transform="translate(2727.685547 0)"/>
     <use xlink:href="#DejaVuSans-Bold-6f" transform="translate(2801.074219 0)"/>
     <use xlink:href="#DejaVuSans-Bold-6e" transform="translate(2869.775391 0)"/>
     <use xlink:href="#DejaVuSans-Bold-63" transform="translate(2940.966797 0)"/>
     <use xlink:href="#DejaVuSans-Bold-65" transform="translate(3000.244141 0)"/>
     <use xlink:href="#DejaVuSans-Bold-70" transform="translate(3068.066406 0)"/>
     <use xlink:href="#DejaVuSans-Bold-74" transform="translate(3139.648438 0)"/>
     <use xlink:href="#DejaVuSans-Bold-75" transform="translate(3187.451172 0)"/>
     <use xlink:href="#DejaVuSans-Bold-61" transform="translate(3258.642578 0)"/>
     <use xlink:href="#DejaVuSans-Bold-6c" transform="translate(3326.123047 0)"/>
     <use xlink:href="#DejaVuSans-Bold-20" transform="translate(3360.400391 0)"/>
     <use xlink:href="#DejaVuSans-Bold-56" transform="translate(3395.214844 0)"/>
     <use xlink:href="#DejaVuSans-Bold-69" transform="translate(3470.857422 0)"/>
     <use xlink:href="#DejaVuSans-Bold-65" transform="translate(3505.134766 0)"/>
     <use xlink:href="#DejaVuSans-Bold-77" transform="translate(3572.957031 0)"/>
    </g>
    <!-- Cache a compressed latent instead of full K+V tensors -->
    <g transform="translate(66.294525 29.7555) scale(0.12 -0.12)">
     <use xlink:href="#DejaVuSans-Bold-43"/>
     <use xlink:href="#DejaVuSans-Bold-61" transform="translate(73.388672 0)"/>
     <use xlink:href="#DejaVuSans-Bold-63" transform="translate(140.869141 0)"/>
     <use xlink:href="#DejaVuSans-Bold-68" transform="translate(200.146484 0)"/>
     <use xlink:href="#DejaVuSans-Bold-65" transform="translate(271.337891 0)"/>
     <use xlink:href="#DejaVuSans-Bold-20" transform="translate(339.160156 0)"/>
     <use xlink:href="#DejaVuSans-Bold-61" transform="translate(373.974609 0)"/>
     <use xlink:href="#DejaVuSans-Bold-20" transform="translate(441.455078 0)"/>
     <use xlink:href="#DejaVuSans-Bold-63" transform="translate(476.269531 0)"/>
     <use xlink:href="#DejaVuSans-Bold-6f" transform="translate(535.546875 0)"/>
     <use xlink:href="#DejaVuSans-Bold-6d" transform="translate(604.248047 0)"/>
     <use xlink:href="#DejaVuSans-Bold-70" transform="translate(708.447266 0)"/>
     <use xlink:href="#DejaVuSans-Bold-72" transform="translate(780.029297 0)"/>
     <use xlink:href="#DejaVuSans-Bold-65" transform="translate(829.345703 0)"/>
     <use xlink:href="#DejaVuSans-Bold-73" transform="translate(897.167969 0)"/>
     <use xlink:href="#DejaVuSans-Bold-73" transform="translate(956.689453 0)"/>
     <use xlink:href="#DejaVuSans-Bold-65" transform="translate(1016.210938 0)"/>
     <use xlink:href="#DejaVuSans-Bold-64" transform="translate(1084.033203 0)"/>
     <use xlink:href="#DejaVuSans-Bold-20" transform="translate(1155.615234 0)"/>
     <use xlink:href="#DejaVuSans-Bold-6c" transform="translate(1190.429688 0)"/>
     <use xlink:href="#DejaVuSans-Bold-61" transform="translate(1224.707031 0)"/>
     <use xlink:href="#DejaVuSans-Bold-74" transform="translate(1292.1875 0)"/>
     <use xlink:href="#DejaVuSans-Bold-65" transform="translate(1339.990234 0)"/>
     <use xlink:href="#DejaVuSans-Bold-6e" transform="translate(1407.8125 0)"/>
     <use xlink:href="#DejaVuSans-Bold-74" transform="translate(1479.003906 0)"/>
     <use xlink:href="#DejaVuSans-Bold-20" transform="translate(1526.806641 0)"/>
     <use xlink:href="#DejaVuSans-Bold-69" transform="translate(1561.621094 0)"/>
     <use xlink:href="#DejaVuSans-Bold-6e" transform="translate(1595.898438 0)"/>
     <use xlink:href="#DejaVuSans-Bold-73" transform="translate(1667.089844 0)"/>
     <use xlink:href="#DejaVuSans-Bold-74" transform="translate(1726.611328 0)"/>
     <use xlink:href="#DejaVuSans-Bold-65" transform="translate(1774.414062 0)"/>
     <use xlink:href="#DejaVuSans-Bold-61" transform="translate(1842.236328 0)"/>
     <use xlink:href="#DejaVuSans-Bold-64" transform="translate(1909.716797 0)"/>
     <use xlink:href="#DejaVuSans-Bold-20" transform="translate(1981.298828 0)"/>
     <use xlink:href="#DejaVuSans-Bold-6f" transform="translate(2016.113281 0)"/>
     <use xlink:href="#DejaVuSans-Bold-66" transform="translate(2084.814453 0)"/>
     <use xlink:href="#DejaVuSans-Bold-20" transform="translate(2128.320312 0)"/>
     <use xlink:href="#DejaVuSans-Bold-66" transform="translate(2163.134766 0)"/>
     <use xlink:href="#DejaVuSans-Bold-75" transform="translate(2206.640625 0)"/>
     <use xlink:href="#DejaVuSans-Bold-6c" transform="translate(2277.832031 0)"/>
     <use xlink:href="#DejaVuSans-Bold-6c" transform="translate(2312.109375 0)"/>
     <use xlink:href="#DejaVuSans-Bold-20" transform="translate(2346.386719 0)"/>
     <use xlink:href="#DejaVuSans-Bold-4b" transform="translate(2381.201172 0)"/>
     <use xlink:href="#DejaVuSans-Bold-2b" transform="translate(2458.691406 0)"/>
     <use xlink:href="#DejaVuSans-Bold-56" transform="translate(2542.480469 0)"/>
     <use xlink:href="#DejaVuSans-Bold-20" transform="translate(2619.873047 0)"/>
     <use xlink:href="#DejaVuSans-Bold-74" transform="translate(2654.6875 0)"/>
     <use xlink:href="#DejaVuSans-Bold-65" transform="translate(2702.490234 0)"/>
     <use xlink:href="#DejaVuSans-Bold-6e" transform="translate(2770.3125 0)"/>
     <use xlink:href="#DejaVuSans-Bold-73" transform="translate(2841.503906 0)"/>
     <use xlink:href="#DejaVuSans-Bold-6f" transform="translate(2901.025391 0)"/>
     <use xlink:href="#DejaVuSans-Bold-72" transform="translate(2969.726562 0)"/>
     <use xlink:href="#DejaVuSans-Bold-73" transform="translate(3019.042969 0)"/>
    </g>
   </g>
  </g>
 </g>
 <defs>
  <clipPath id="p43ece14f57">
   <rect x="7.2" y="44.7555" width="487.6128" height="406.344"/>
  </clipPath>
 </defs>
</svg>
